<svg xmlns="http://www.w3.org/2000/svg" width="361.417" height="361.417" viewBox="0 0 361.41732 361.41732"><path d="M299.45 340.575c0 11.045-48.503 20-108.333 20s-108.333-8.955-108.333-20c0-11.047 48.502-20 108.333-20 59.83 0 108.333 8.953 108.333 20" fill="#e4e5e5"/><path d="M123.222 206.85c2.168-2.82 9.347-3.73 12.533-4.002.265-4.02 1.096-16.96 1.171-21.985a60.986 60.986 0 0 1-3.697-2.327c-.263.192-.59.301-.955.251-.378-.04-9.288-.839-15.972 7.316-5.946 7.247-10.103 24.297-11.232 29.323l16.399 2.601c.386-5.834.99-10.185 1.753-11.176" fill="#816f69"/><path d="M108.005 280.76c.082-.125.239-.183.36-.277-1.069-1.42-2.476-2.642-4.401-3.215l-55.377 37.513-3.242 22.445c18.469-16.519 60.134-53.854 62.66-56.465" fill="#d2d2ca"/><path d="M243.417 330.432c-2.542 1.089-7.717 1.445-10.856.939-.44 4.512-.151 10.899 1.906 12.007 3.164 1.704 18.36 4.11 23.645 1.637.78-.37 1.225-.8 1.323-1.29.854-4.27-12.39-11.36-15.169-12.36-.435-.158-.725-.52-.849-.933M145.006 332.97c-1.94 0-3.902-.272-5.522-.964-.134.116-.29.21-.467.27-2.77.936-16.013 7.132-15.15 11.45.098.489.543.92 1.323 1.289 5.282 2.475 20.48.065 23.644-1.637 1.888-1.015 2.282-6.673 1.993-11.003-1.455.287-3.6.596-5.82.596M204.345 16.73c-.091-1.763-.606-6.344-3.848-9.58-2.472-2.463-6.053-3.624-10.632-3.522-4.506.125-8.009 1.51-10.41 4.112-2.868 3.11-3.521 7.24-3.666 9.373a176.54 176.54 0 0 1 14.93-.8c4.802-.05 9.33.102 13.626.417" fill="#f8b80e"/><path d="M112.456 269.718c-3.385-1.786-9.789-1.272-13.434 1.07-1.008.648-2.196 1.71-2.12 3.082.05.9.467 2.32 1.163 4.038l4.86-3.29a1.398 1.398 0 0 1 1.08-.207c9.081 2.016 10.14 13.49 10.18 13.975.031.369-.085.736-.324 1.015l-4.79 5.642c.348.41.536.62.713.71 2.728 1.37 7.62-2.07 9.777-5.036.479-.659.786-3.376-.33-8.165-1.447-6.22-4.234-11.496-6.775-12.834" fill="#b0b1af"/><path d="M109.707 282.658c-.047.056-.065.088-.117.15l.012.04c-.02.01-.042.013-.066.018-2.361 2.635-9.856 9.366-31.817 29.084a23128.316 23128.316 0 0 1-31.083 27.85l21.234-.511 43.476-51.22c-.147-1-.58-3.215-1.639-5.41" fill="#d2d2ca"/><path d="M161.77 61.853h.349l10.392-41.578c-52.409 6.3-68.074 36.108-71.501 44.628 12.426-2.502 39.48-3.05 60.76-3.05" fill="#8f7973"/><path d="M114.216 84.67a1.373 1.373 0 0 1 1.011-.048c.062.021.105.066.162.095 14.808.59 41.468.964 73.07.965 46.675 0 82.6-.816 85.428-1.937 2.768-1.185 4.763-4.16 5.077-7.574.252-2.744-.71-5.124-2.574-6.366-3.613-1.935-60.489-5.173-114.62-5.173-32.53 0-54.159 1.224-62.55 3.539-2.81.774-4.244 2.16-4.385 4.239-.273 4.02 4.359 9.69 8.202 11.335.86.34 4.807.655 11.18.925" fill="#f8b80e"/><path d="M119.254 164.938c-3.82-5.37-6.495-11.19-8.338-17.152-.029.005-.052.022-.081.026-.03.003-.575.06-1.471.06-2.19 0-6.473-.355-10.433-2.625.645 3.448 5.77 26.558 26.791 27.173-2.37-2.3-4.547-4.778-6.468-7.482" fill="#884e2e"/><path d="M110.135 145.078c-2.573-9.686-3.038-19.62-2.509-28.543-2.347.33-8.822 1.617-12.246 5.992-1.971 2.521-2.638 5.74-1.983 9.566 2.28 13.303 14.412 13.137 16.738 12.985" fill="#fde29a"/><path d="M112.847 87.37c-5.816-.28-9.878-.628-10.905-1.07-.15-.064-.305-.17-.457-.243-.403 1.158-6.339 18.52-4.966 31.66 4.372-3.042 9.705-3.836 11.307-4.012 1.029-12.313 3.774-22.292 5.021-26.334" fill="#884e2e"/><path d="M121.306 220.816l-13.914-2.206c-.145 1.35-3.483 32.85-2.605 45.996.023.357-.093.712-.326.99-.004 0-.195.241-.452.575 3.526-.549 7.232-.234 9.742 1.089 2.265 1.19 4.161 3.987 5.625 7.163.951-2.45.341-6.275-1.622-8.892-2.908-3.875 1.218-20.581 2.552-25.608.108-.402.389-.705.735-.876-.121-6.156-.019-12.664.265-18.231" fill="#fde29a"/><path d="M240.936 202.785c3.088.1 9.725.56 12.491 2.613.942.7 1.904 2.674 2.463 12.655l16.569-2.627c-1.13-5.029-5.29-22.083-11.233-29.323-6.774-8.26-17.176-8.35-17.301-8.35h-.003c-.4 0-.755-.175-1.008-.446-.717.508-1.427 1.021-2.172 1.504 1.714 5.401.69 18.741.195 23.974" fill="#8f7973"/><path d="M183.369 264.72c-25.113 0-49.012-.863-56.998-2.944 3.99 24.995 10.871 64.165 13.068 67.019 2.225 2.222 9.39 1.283 11.77.665.862-1.852 3.273-10.115 5.416-17.453 4.385-15.021 7.376-25.002 8.947-26.834 3.517-4.108 47.207-2.16 49.712-1.325 1.707.57 3.185 4.253 9.297 23.182 2.704 8.372 6.385 19.772 7.736 21.458 2.568.724 8.553.214 10.155-.643 1.554-3.89 7.27-42.317 10.57-66.068.008-.059.04-.105.055-.161-7.57 1.854-39.446 3.104-69.728 3.104" fill="#5d504c"/><path d="M269.014 116.533c.226 8.867-.55 18.853-3.46 28.587.182-.058.376-.088.577-.07.599.048 14.656 1.443 17.125-12.953.656-3.83-.01-7.049-1.981-9.57-3.433-4.386-9.929-5.667-12.261-5.994" fill="#fde29a"/><path d="M265.82 147.812a1.377 1.377 0 0 1-.945-.546c-2.001 5.996-4.836 11.855-8.818 17.239-1.963 2.656-4.165 5.1-6.548 7.373 18.183-.825 25.118-19.3 27.038-26.016-3.606 1.716-7.28 2.01-9.257 2.01-.895 0-1.441-.057-1.47-.06" fill="#884e2e"/><path d="M256.36 237.485l.004.01c1.536 5.598 6.322 24.157 3.409 28.038-2.323 3.1-2.778 7.914-.953 10.104.298.358.453.413.454.413.272-.085 1.064-1.054 1.587-1.694.672-.823 1.434-1.756 2.37-2.535 1.574-1.314 3.043-.985 3.898-.239 1.809 1.578 1.804 5.509-.011 8.41-1.372 2.196-1.488 5.531-.624 6.723.204.278.417.415.93.29 3.062-.765 9.477-8.055 9.871-11.982.324-3.24-2.942-7.902-4.229-9.427a1.394 1.394 0 0 1-.325-.988c.864-12.95-2.826-43.752-3.088-45.92l-13.625 2.162c.178 4.242.296 9.677.332 16.637" fill="#fde29a"/><path d="M264.594 87.345c.107.133.195.285.248.457.07.224 3.335 11.196 4.065 25.911 1.688.194 6.794 1.002 11.05 3.887.52-13.47-4.78-27.237-6.35-30.983-1.77.284-4.92.524-9.013.728" fill="#884e2e"/><path d="M190.347 53.555c4.777 0 10.478-1.44 10.832-5.494.12-1.408-.357-2.71-1.422-3.871-2.14-2.335-6.407-3.844-10.872-3.844-4.864 0-10.395 1.884-11.339 7.167-.141.793.084 1.525.686 2.244 1.87 2.236 6.854 3.798 12.115 3.798M191.912 31.5h.001c2.37 0 4.977-.52 5.18-1.977.07-.49-.102-.963-.523-1.448-1.42-1.632-5.092-2.814-8.73-2.814-2.947 0-6.24.835-6.655 3.182.327.945 5.5 3.057 10.727 3.057" fill="#8f7973"/><path d="M188.885 37.567c5.287 0 10.239 1.819 12.92 4.744 1.59 1.734 2.331 3.805 2.141 5.99-.431 4.955-5.641 8.032-13.597 8.032h-.001c-5.095 0-11.477-1.482-14.248-4.79-1.13-1.35-1.575-2.912-1.289-4.518 1.244-6.972 8.088-9.458 14.074-9.458zm-10.436-9.606c.606-3.431 4.117-5.48 9.39-5.48 3.758 0 8.563 1.167 10.827 3.77.953 1.096 1.361 2.361 1.18 3.657-.229 1.632-1.564 4.37-7.932 4.37h-.001c-4.53 0-10.692-1.517-12.747-3.97-.772-.923-.817-1.786-.717-2.347zm33.613 34.742l-7.342-43.19a163.08 163.08 0 0 0-13.968-.42c-5.418.062-10.488.372-15.295.855L164.98 61.86c14.766.04 31.299.348 47.082.843" fill="#f8b80e"/><path d="M214.849 62.502c.017.099-.005.194-.01.29 27.63.91 52.422 2.379 60.52 3.941-2.094-8.81-13.573-41.832-67.8-46.955l7.29 42.724" fill="#8f7973"/><path d="M226.522 202.36a1.387 1.387 0 0 1-.823.992c-8.893 3.705-21.768 5.005-34.458 5.005-21.077 0-41.656-3.582-42.697-5.666-.705-1.41-.473-9.756-.152-16.556a71.522 71.522 0 0 1-8.722-3.78c-.21 6.876-1.176 21.206-1.223 21.887a1.391 1.391 0 0 1-1.307 1.293c-4.083.233-10.416 1.32-11.714 3.008-1.619 2.777-2.302 27.257-1.204 41.204 7.195.834 75.14 8.296 129.34.06.223-34.076-1.068-41.162-1.89-42.267-1.95-1.433-8.573-2.003-12.266-2.003-.394 0-.769-.168-1.032-.458a1.394 1.394 0 0 1-.35-1.075c.76-7.317 1.39-19.2.288-23.73a71.423 71.423 0 0 1-10.707 5.11c1.001 7.097-.995 16.572-1.083 16.976" fill="#f8b80e"/><path d="M233.492 139.002c-4.018 0-7.277-5.024-7.277-11.22 0-6.196 3.259-11.221 7.277-11.221 4.02 0 7.28 5.025 7.28 11.221s-3.26 11.22-7.28 11.22zm-21.927 27.674c-8.124 3.229-15.628 4.306-22.026 4.306-12.474 0-20.753-4.097-21.267-4.361a1.385 1.385 0 0 1-.608-1.864 1.397 1.397 0 0 1 1.866-.614c.181.095 18.261 8.994 41.01-.05a1.399 1.399 0 0 1 1.804.778 1.391 1.391 0 0 1-.78 1.805zm-67.53-27.674c-4.019 0-7.278-5.024-7.278-11.22 0-6.196 3.26-11.221 7.278-11.221 4.02 0 7.279 5.025 7.279 11.221s-3.26 11.22-7.28 11.22zm118.151-50.386a1.363 1.363 0 0 1 .189-1.169c-15.164.658-40.43.89-57.33.971 1.151 7.732 4.74 32.577 3.867 36.06-.928 3.727-13.745 17.898-18.282 20.22-.396.203-.934.433-1.508.433-.236 0-.48-.041-.722-.139-2.838-1.136-15.298-13.886-17.13-18.011-1.809-4.074 1.905-31.213 2.955-38.553-16.41-.068-42.478-.282-58.496-.93-2.232 7.182-13.75 48.364 5.796 75.843 2.407 3.384 5.21 6.426 8.371 9.15.219.101.401.251.541.442 12.835 10.767 31.654 16.232 56.205 16.232 21.183 0 38.285-3.982 51.168-11.828.097-.144.222-.275.377-.376a1.36 1.36 0 0 1 .603-.203c5.956-3.78 10.976-8.416 15.035-13.906 21.749-29.417 8.497-73.791 8.361-74.236" fill="#fde29a"/><path d="M124.49 252.573c.351 3.172.824 5.495 1.436 6.39 5.729 4.378 118.939 4.095 127.558-.322.004-.676.015-1.659.028-2.891.012-1.072.022-2.112.03-3.137-18.913 2.842-39.447 3.81-58.51 3.81-34.532 0-64.185-3.13-70.542-3.85M177.03 88.44c-2.038 14.182-4.35 34.87-3.22 37.412 1.619 3.645 12.904 15.008 15.409 16.454 2.973-1.08 16.237-15.455 16.998-18.5.6-2.399-2.07-22.571-3.982-35.375-6.828.027-11.918.031-13.775.031-1.636 0-5.798-.002-11.43-.022M151.134 187.07c-.262 5.89-.373 12.202-.144 14.057 5.131 1.699 49.625 9.149 72.957-.062.422-2.234 1.587-9.24.962-14.705-10.857 3.704-23.62 5.584-38.267 5.584-13.522 0-25.36-1.644-35.508-4.874" fill="#8f7973"/><path d="M142.064 118.987a3.488 3.488 0 1 0 0 6.976 3.488 3.488 0 0 0 0-6.976M231.522 118.987a3.488 3.488 0 1 0 .002 6.976 3.488 3.488 0 0 0-.002-6.976" fill="#f8e907"/><path d="M182.887 188.233c-7.527-2.542-15.896-2.303-23.082-5.692-8.181-3.86-13.561-11.789-18.344-19.468-4.095-6.575-8.096-13.338-10.176-20.8-3.753-13.466-.599-28.666 8.201-39.526 5.55-6.849 13.255-11.851 21.686-14.396-15.166-.118-33.225-.359-45.443-.854-2.232 7.183-13.75 48.365 5.796 75.844 2.407 3.384 5.21 6.426 8.371 9.15.219.101.401.251.541.442 12.592 10.563 30.978 15.99 54.85 16.193a51.81 51.81 0 0 0-2.4-.893M275.041 122.842c1.218-1.201 2.973-1.896 4.668-1.931-3.57-3.091-8.682-4.095-10.695-4.378.226 8.867-.55 18.853-3.46 28.587.182-.058.376-.088.577-.07.354.028 5.415.503 10.005-2.075l-.097-.042c-3.977-1.777-4.788-7.066-4.352-11.398.318-3.155 1.1-6.465 3.354-8.693M107.626 116.535c-1.406.198-4.292.756-7.117 2.098.063.027.133.04.195.072 1.38.718 2.08 2.272 2.616 3.735 1.394 3.8 2.354 7.94 1.447 11.886-.746 3.252-3.068 6.265-6.118 7.399 4.388 3.532 9.98 3.45 11.486 3.353-2.573-9.686-3.038-19.62-2.509-28.543M113.375 219.558c1.596 1.388 2.127 4.187 2.179 6.513a139.481 139.481 0 0 1-1.9 26.232c-.507 3.005-1.113 6.033-.91 9.074.13 1.925.552 3.851.707 5.768.094.044.21.067.3.115 2.265 1.19 4.161 3.987 5.625 7.163.951-2.45.341-6.275-1.622-8.892-2.908-3.875 1.218-20.581 2.552-25.608.108-.402.389-.705.735-.876-.121-6.156-.019-12.664.265-18.231l-7.931-1.258M264.274 267.578c2.192-6.683.112-13.903-1.103-20.833-1.562-8.904-1.606-18.058-.234-26.994l-6.91 1.096c.18 4.243.297 9.678.333 16.638l.004.01c1.536 5.598 6.322 24.157 3.409 28.038-2.323 3.1-2.778 7.914-.953 10.104.298.358.453.413.454.413.272-.085 1.064-1.054 1.587-1.694.672-.823 1.434-1.756 2.37-2.535 1.574-1.314 3.043-.985 3.898-.239 1.809 1.578 1.804 5.509-.011 8.41-1.372 2.196-1.488 5.531-.624 6.723.176.242.396.34.775.29-.069-.505-.113-1.012-.079-1.517.218-3.275 3.041-5.767 4.024-8.9 1.366-4.352-2.463-9.877-6.94-9.007" fill="#fccd7d"/><path d="M107.826 113.705c1.029-12.313 3.774-22.292 5.021-26.334-5.816-.28-9.878-.629-10.905-1.07-.15-.065-.305-.17-.457-.244-.131.378-.853 2.495-1.715 5.608.645-.41 1.332-.75 2.054-1.003a36.967 36.967 0 0 0-2.262 14.73c4.404-1.805 3.332-9.945 7.92-11.204-2.415 6.523-3.76 13.433-4.02 20.383a28.74 28.74 0 0 1 4.364-.866M118.559 164.245c-3.82-5.372-6.494-11.193-8.338-17.153-.029.004-.051.021-.081.025-.03.002-.575.06-1.47.06a23.39 23.39 0 0 1-2.664-.167c1.139 5.356 3.364 10.482 6.546 14.938 2.904 4.067 6.878 7.624 11.38 9.67.373.025.713.095 1.095.107-2.37-2.3-4.547-4.778-6.468-7.48M264.594 87.345c.107.133.195.285.248.457.07.224 3.335 11.196 4.065 25.911.804.093 2.395.333 4.29.863-1.127-7.126-1.715-14.338-1.705-21.551 2.787 1.8 4.565 5.063 4.573 8.382.002 1.78.37 4.436 2.119 4.104l-.515-6.633c-1.478-5.788-3.258-10.342-4.063-12.26-1.77.283-4.92.523-9.012.727M270.455 147.64a23.415 23.415 0 0 1-3.165.232c-.895 0-1.441-.057-1.47-.06a1.377 1.377 0 0 1-.945-.546c-2.001 5.996-4.836 11.855-8.818 17.239-1.963 2.656-4.165 5.1-6.548 7.373 1.728-.078 3.323-.36 4.855-.732 3.827-2.284 7.218-5.149 9.693-8.848 2.078-3.105 3.403-6.64 4.71-10.14l1.688-4.517" fill="#794429"/><path d="M188.127 97.1c2.475-4.102 6.445-7.49 11.022-8.66-5.253.02-9.125.022-10.69.022-1.635 0-5.797-.002-11.43-.022-2.037 14.182-4.35 34.87-3.22 37.412 1.62 3.645 12.905 15.008 15.41 16.454.146-.053.336-.163.528-.276-1.09-1.688-2.302-3.314-3.3-5.057-3.988-6.967-4.01-15.492-3.086-23.467.661-5.7 1.801-11.491 4.766-16.405M101.01 64.903c6.205-1.25 16.056-2.01 27.014-2.46 2.415-9.496 8.166-18.026 15.202-24.92 6.409-6.28 13.856-11.353 21.505-16.08-46.185 8.16-60.47 35.38-63.721 43.46" fill="#816f69"/><path d="M243.466 78.635c-12.485-.857-24.902-2.565-37.411-3.115-29.153-1.282-58.9 3.71-87.246-3.222-1.723-.42-3.498-.916-4.85-2.063-1.164-.988-1.86-2.585-1.583-4.044-5.852.531-10.292 1.19-13.156 1.98-2.81.774-4.244 2.16-4.385 4.239-.273 4.02 4.359 9.69 8.202 11.335.86.34 4.807.655 11.18.925a1.373 1.373 0 0 1 1.01-.048c.062.021.105.066.162.095 14.808.59 41.468.964 73.07.965 46.675 0 82.6-.816 85.428-1.937 2.768-1.185 4.763-4.16 5.077-7.574.04-.443-.001-.856-.022-1.276l-.33.168c-10.892 5.382-23.33 4.382-35.146 3.572M189.865 3.628c-4.506.125-8.009 1.51-10.41 4.112-2.868 3.11-3.521 7.24-3.666 9.373 2.888-.278 5.91-.466 9.003-.605.032-2.503.368-4.963 1.314-7.283.911-2.237 2.613-4.21 4.638-5.553-.302-.005-.57-.05-.88-.044M187.567 59.612a43.747 43.747 0 0 1-1.542-3.622c-3.963-.604-7.904-2.034-9.925-4.447-1.13-1.35-1.575-2.912-1.289-4.518.849-4.76 4.32-7.392 8.333-8.605.056-1.854.215-3.7.496-5.533-1.938-.661-3.593-1.527-4.474-2.579-.772-.923-.817-1.786-.717-2.347.573-3.246 3.768-5.231 8.575-5.439.34-.537.686-1.072 1.097-1.562a11.6 11.6 0 0 1 1.971-1.845 172.6 172.6 0 0 0-14.635.833L164.98 61.86c7.536.02 15.532.11 23.654.26-.275-.858-.682-1.707-1.067-2.508" fill="#f69514"/><path d="M187.989 25.266c-.05 0-.1-.005-.15-.005-2.945 0-6.24.835-6.654 3.182.249.717 3.287 2.1 7.02 2.73a6.884 6.884 0 0 1-.81-4.13 4.59 4.59 0 0 1 .594-1.777M186.321 40.548c-4.079.58-7.995 2.6-8.775 6.965-.141.793.084 1.525.686 2.244 1.318 1.575 4.19 2.801 7.605 3.396-1.685-4.003-1.557-8.76.484-12.605" fill="#816f69"/><path d="M191.241 208.357c-21.077 0-41.656-3.582-42.697-5.666-.705-1.41-.473-9.756-.152-16.556a71.522 71.522 0 0 1-8.722-3.78c-.21 6.876-1.176 21.206-1.223 21.887a1.391 1.391 0 0 1-1.307 1.293c-4.083.233-10.416 1.32-11.714 3.008-1.619 2.777-2.302 27.257-1.204 41.204 2.9.336 15.674 1.748 33.432 2.776-8.013-7.937-7.6-22.816 1.013-30.17 4.245-3.625 9.758-5.353 15.163-6.746a183.47 183.47 0 0 1 16.197-3.399c6.847-1.116 14.037-2 20.16-5.01-6 .817-12.493 1.16-18.946 1.16" fill="#f69514"/><path d="M207.391 190.508c-6.435.953-13.35 1.435-20.749 1.435-13.522 0-25.36-1.643-35.508-4.873-.262 5.89-.373 12.202-.144 14.057 2.387.79 13.305 2.825 26.642 3.849 4.17-6.313 13.173-8.09 20.682-10.545 3.137-1.026 6.162-2.373 9.077-3.923M260.442 207.667c-3.145-.07-4.096-4.485-6.765-6.152-1.527-.955-3.513-.914-5.056-1.844-2.267-1.366-2.891-4.314-3.301-6.929-.355-2.269-.711-4.537-1.068-6.806-.425-2.714-.988-5.629-2.627-7.738-.295.205-.581.417-.884.613 1.714 5.401.69 18.741.195 23.974 3.088.1 9.725.56 12.491 2.613.942.7 1.904 2.674 2.463 12.655l5.937-.94c-.46-3.15-.922-6.297-1.385-9.446M161.995 255.538c-19.064-.982-33.329-2.492-37.505-2.965.351 3.172.824 5.495 1.436 6.39 2.24 1.712 20.925 2.708 43.348 3.027a48.714 48.714 0 0 1-7.28-6.452" fill="#816f69"/><path d="M250.276 262.12c-10.791 1.572-39.471 2.6-66.907 2.6-25.113 0-49.012-.863-56.998-2.944 3.99 24.995 10.871 64.165 13.068 67.019 2.225 2.222 9.39 1.283 11.77.665.862-1.852 3.273-10.115 5.416-17.453 4.385-15.021 7.376-25.002 8.947-26.834 3.517-4.108 47.207-2.16 49.712-1.325 1.707.57 3.185 4.253 9.297 23.182 2.704 8.372 6.385 19.772 7.736 21.458 1.432.403 3.913.415 6.117.207-2.71-4.188-4.907-8.707-6.458-13.447-1.482-4.53-2.4-9.226-3.161-13.932-1.66-10.275-2.021-22.299 5.577-29.41 4.474-4.188 11.225-6.149 15.884-9.786" fill="#4f4240"/><path d="M145.884 332.942c.44.756.683 1.641.63 2.506-.137 2.24-1.71 4.16-3.533 5.468-5.056 3.625-12.457 2.934-17.214-.939-1.328 1.293-2.132 2.589-1.9 3.749.098.489.543.92 1.323 1.289 5.282 2.475 20.48.065 23.644-1.637 1.888-1.015 2.282-6.673 1.993-11.003a32.299 32.299 0 0 1-4.943.567M238.206 337.48c-1.222-1.703-1.975-3.833-1.845-5.895-1.38.026-2.714-.04-3.8-.214-.44 4.512-.151 10.899 1.906 12.007 3.164 1.704 18.36 4.11 23.645 1.637.78-.37 1.225-.8 1.323-1.29.13-.65-.096-1.368-.533-2.118-2.85 1.078-5.837 1.761-8.872 1.671-4.546-.137-9.173-2.102-11.824-5.797" fill="#f69514"/><path d="M45.345 337.226c18.469-16.519 60.134-53.854 62.66-56.465.082-.126.239-.184.36-.278-.381-.506-.824-.97-1.299-1.406-11.127 8.989-21.442 19.001-33.129 27.248-5.453 3.847-11.188 7.296-16.487 11.353-3.75 2.873-7.253 6.04-10.63 9.343l-1.475 10.205M109.707 282.658c-.047.056-.065.088-.117.15l.012.04c-.02.01-.042.013-.066.018-2.361 2.635-9.856 9.366-31.817 29.084a23128.316 23128.316 0 0 1-31.083 27.85l9.884-.239c5.636-6.412 11.57-12.565 17.841-18.36 12.631-11.674 26.835-22.511 36.075-36.762a16.76 16.76 0 0 0-.729-1.78" fill="#b0b1af"/><path d="M227.942 213.88c-1.922 1.315 2.433 11.115 7.99 11.115 5.558 0-1.39-15.632-7.99-11.115M227.9 227.166c-2.518 1.372 1.83 7.092 4.805 6.864 2.974-.23.229-9.61-4.805-6.864" fill="#facc0b"/><path d="M191.122 1.64s8.337 6.6 10.074 9.726c1.736 3.126 1.389 6.6 1.389 6.6l6.947 45.157 3.822-.347-7.643-44.463s.695-15.978-14.589-16.673" fill="#fff"/><path d="M207.101 18.313s34.041 7.99 48.631 21.537c14.59 13.547 17.02 27.44 17.02 27.44l4.517.348S263.374 20.745 207.1 18.313M137.281 62.776s131.651 7.989 136.166 8.336c4.517.348 7.643 3.821 7.643 3.821s-2.779-4.862-5.558-6.252c-2.78-1.39-84.41-7.295-138.25-5.905M263.057 91.95c2.428 18.855 7.082 91.138-63.25 96.572-1.993.154-3.808.306-5.53.46 17.692-.859 32.237-4.765 43.533-11.645.097-.144.222-.275.377-.376a1.36 1.36 0 0 1 .603-.203c5.956-3.78 10.976-8.416 15.035-13.906 18.281-24.727 11.835-60.012 9.232-70.902M261.226 186.103c-6.235-7.603-15.526-8.282-17.064-8.342 3.33 1.267 12.43 5.135 16.085 10.761 3.463 5.325 8.342 20.415 10.437 27.185l1.775-.281c-1.13-5.029-5.29-22.083-11.233-29.323M238.374 205.078s10.063 2.202 11.106 4.98c1.041 2.78 1.736 47.59 1.736 50.368 0 2.779-.94 1.694-.94 1.694l5.109-2.39s-.695-31.957-1.39-39.25c-.694-7.295-.568-15.082-.568-15.082s-14.002-3.215-15.053-.32M273.066 265.593a1.394 1.394 0 0 1-.325-.987c.864-12.951-2.826-43.753-3.089-45.92l-2.073.329c.412 3.087 4.443 33.78 3.785 46.968 0 0 4.168 4.17 4.168 7.99 0 2.778-4.032 8.663-7.17 12.612 3.267-1.702 8.575-7.995 8.933-11.564.324-3.24-2.943-7.903-4.229-9.428M251.249 274.452c-3.15 15.179-8.61 41.326-11.472 54.079 1.175-.174 2.177-.408 2.695-.686 1.3-3.25 5.504-30.623 8.777-53.393M259.522 169.257c10.84-5.487 15.51-18.092 17.025-23.395-.953.455-1.91.804-2.842 1.08-2.958 8.84-7.441 16.956-14.183 22.315M279.017 117.03c.315.187.633.362.94.57.138-3.56-.138-7.137-.637-10.548 0 2.764-.073 6.174-.303 9.978M203.859 123.796c-.78 1.562-7.455 10.804-12.29 16.875 4.836-4.08 14.018-14.345 14.648-16.865.5-2.003-1.277-16.39-2.99-28.54.603 10.444 1.418 26.957.632 28.53" fill="#fff"/><path d="M161.77 64.632c-32.53 0-54.159 1.224-62.55 3.539-2.81.774-4.244 2.16-4.385 4.239-.273 4.02 4.359 9.69 8.202 11.335 2.825 1.12 38.752 1.935 85.423 1.937 46.674 0 82.6-.816 85.427-1.937 2.768-1.185 4.763-4.16 5.077-7.574.252-2.744-.71-5.124-2.574-6.366-3.613-1.935-60.489-5.173-114.62-5.173zm26.69 23.83c-8.339 0-81.621-.062-86.518-2.161-4.868-2.086-10.246-8.691-9.88-14.079.128-1.889 1.132-5.272 6.42-6.732 10.898-3.008 40.433-3.637 63.288-3.637 46.031 0 111.884 2.787 116.161 5.64 2.726 1.818 4.146 5.155 3.799 8.933-.405 4.415-3.055 8.291-6.751 9.875-4.897 2.099-78.178 2.161-86.52 2.161" fill="#201d1c"/><path d="M277.159 70.038a1.391 1.391 0 0 1-1.374-1.195c-.295-2.067-8.149-50.652-85.033-49.75-77.06.887-90.432 47.623-90.558 48.093-.2.74-.963 1.177-1.7.985a1.389 1.389 0 0 1-.987-1.696c.13-.492 13.925-49.248 93.213-50.162 79.559-.838 87.742 51.613 87.816 52.143a1.39 1.39 0 0 1-1.377 1.582M186.642 191.943c-31.977 0-54.65-9.085-67.388-27.005-22.195-31.216-6.474-77.505-5.795-79.458a1.389 1.389 0 1 1 2.625.911c-.162.467-15.925 46.91 5.44 76.95 12.19 17.134 34.098 25.824 65.118 25.824 31.672 0 54.274-8.853 67.183-26.313 21.749-29.417 8.497-73.791 8.361-74.236a1.389 1.389 0 1 1 2.656-.814c.142.459 13.79 46.17-8.785 76.703-13.46 18.206-36.815 27.438-69.415 27.438" fill="#201d1c"/><path d="M109.364 147.872c-4.234 0-16.298-1.26-18.704-15.309-.796-4.635.059-8.59 2.541-11.758 4.98-6.353 14.693-7.117 15.104-7.145.785-.104 1.429.523 1.484 1.286a1.39 1.39 0 0 1-1.285 1.486c-.088.006-8.914.714-13.124 6.095-1.971 2.521-2.638 5.74-1.983 9.566 2.47 14.408 16.523 13.017 17.125 12.957a1.394 1.394 0 0 1 1.535 1.226 1.39 1.39 0 0 1-1.222 1.536c-.03.003-.575.06-1.471.06M267.29 147.872c-.895 0-1.441-.057-1.47-.06a1.392 1.392 0 0 1-1.224-1.536c.088-.763.771-1.291 1.535-1.226.599.048 14.656 1.443 17.125-12.953.656-3.83-.01-7.049-1.981-9.57-4.21-5.381-13.036-6.089-13.125-6.095a1.39 1.39 0 0 1-1.285-1.486c.056-.763.695-1.379 1.485-1.286.411.028 10.125.792 15.105 7.145 2.48 3.167 3.335 7.123 2.54 11.76-2.408 14.047-14.469 15.307-18.705 15.307" fill="#201d1c"/><path d="M95.21 120.075c-.689 0-1.286-.51-1.376-1.214-1.84-14.266 4.79-33.056 5.073-33.849a1.385 1.385 0 0 1 1.775-.841c.724.257 1.1 1.054.842 1.775-.067.187-6.688 18.961-4.934 32.562a1.388 1.388 0 0 1-1.38 1.567M126.556 175.232c-25.294 0-30.39-29.634-30.441-29.944a1.389 1.389 0 0 1 1.15-1.592c.761-.148 1.471.392 1.594 1.147.197 1.213 5.105 29.615 30.352 27.497.768-.035 1.438.505 1.501 1.267a1.388 1.388 0 0 1-1.267 1.5c-.991.085-1.954.125-2.889.125M281.255 120.983a1.39 1.39 0 0 1-1.386-1.5c1.318-16.258-6.62-33.702-6.7-33.88a1.39 1.39 0 0 1 2.525-1.163c.34.738 8.323 18.266 6.946 35.266a1.393 1.393 0 0 1-1.385 1.277M248.329 174.703c-.564 0-1.134-.013-1.718-.046a1.391 1.391 0 0 1-1.315-1.46c.041-.765.663-1.434 1.461-1.314 24.43 1.243 30.347-28.14 30.403-28.44a1.389 1.389 0 1 1 2.73.52c-.059.315-6.179 30.74-31.561 30.74M189.122 145.13c-.236 0-.48-.04-.722-.138-2.838-1.136-15.298-13.886-17.13-18.011-1.885-4.244 2.235-33.589 3.08-39.426.107-.763.81-1.27 1.574-1.178a1.39 1.39 0 0 1 1.175 1.574c-2.053 14.191-4.432 35.331-3.29 37.901 1.62 3.645 12.905 15.008 15.41 16.454 2.973-1.08 16.237-15.455 16.998-18.5.614-2.456-2.2-23.569-4.12-36.303a1.387 1.387 0 0 1 1.167-1.578c.772-.132 1.467.406 1.582 1.166.843 5.591 4.998 33.667 4.066 37.387-.928 3.727-13.745 17.898-18.282 20.22-.396.203-.934.433-1.508.433M183.369 264.72c-29.647 0-57.693-1.195-59.737-4.188-3.828-5.601-3.078-50.211-.41-53.681 2.168-2.82 9.347-3.731 12.533-4.003.277-4.21 1.179-18.226 1.179-22.663a1.388 1.388 0 1 1 2.779 0c0 5.31-1.213 23.292-1.266 24.057a1.391 1.391 0 0 1-1.307 1.293c-4.083.233-10.416 1.32-11.714 3.008-2.154 3.694-2.651 45.81.5 50.42 5.729 4.378 118.939 4.095 127.558-.322.004-.676.015-1.659.028-2.891.42-39.23-.972-47.043-1.84-48.21-1.95-1.433-8.573-2.003-12.266-2.003-.394 0-.769-.169-1.032-.459a1.394 1.394 0 0 1-.35-1.075c.86-8.27 1.556-22.402-.233-25.115a1.393 1.393 0 0 1 .396-1.927 1.395 1.395 0 0 1 1.924.396c2.579 3.914 1.373 19.643.825 25.428 3.088.1 9.725.56 12.491 2.613 1.633 1.217 3.337 6.21 2.864 50.382a403.95 403.95 0 0 0-.03 3.376c0 1.527-1.802 2.087-2.482 2.296-6.292 1.946-39.235 3.268-70.41 3.268" fill="#201d1c"/><path d="M122.051 220.916c-.072 0-.145 0-.219-.016l-18.648-2.958a1.392 1.392 0 0 1-1.145-1.65c.188-.93 4.702-22.918 12.113-31.952 7.664-9.344 17.974-8.359 18.414-8.315.761.081 1.31.762 1.231 1.525-.078.762-.73 1.346-1.523 1.237-.378-.04-9.288-.838-15.972 7.317-5.946 7.246-10.103 24.296-11.232 29.322l17.197 2.728a1.39 1.39 0 0 1-.216 2.762M145.006 332.97c-2.861 0-5.831-.512-7.564-2.243-3.25-3.249-11.565-54.327-14.036-69.905a1.39 1.39 0 0 1 1.155-1.59 1.384 1.384 0 0 1 1.589 1.156c3.951 24.904 11.052 65.5 13.289 68.407 2.225 2.222 9.39 1.283 11.77.665.862-1.852 3.273-10.115 5.416-17.453 4.385-15.021 7.376-25.002 8.947-26.834 3.517-4.108 47.207-2.16 49.712-1.325 1.707.57 3.185 4.253 9.297 23.182 2.704 8.372 6.385 19.772 7.736 21.458 2.568.724 8.553.214 10.155-.643 1.554-3.89 7.27-42.317 10.57-66.068.104-.762.8-1.275 1.567-1.185.76.105 1.29.805 1.185 1.565-9.178 66.079-10.895 67.368-11.462 67.791-2.23 1.674-10.04 2.13-13.098 1.115-1.71-.57-3.187-4.252-9.298-23.18-2.697-8.353-6.367-19.72-7.727-21.448-4.712-1.074-43.435-1.802-46.58.597-1.245 1.463-5.513 16.079-8.337 25.751-5.473 18.755-5.673 18.82-6.783 19.19-.743.247-4.042.998-7.503.998M119.774 277.913c-.313 0-.628-.105-.887-.322a1.387 1.387 0 0 1-.18-1.956c1.825-2.19 1.372-7.005-.953-10.104-2.908-3.875 1.218-20.581 2.552-25.608a1.389 1.389 0 1 1 2.686.711c-2.568 9.683-4.45 21.317-3.016 23.23 3.175 4.234 3.565 10.31.868 13.55-.277.328-.67.5-1.07.5" fill="#201d1c"/><path d="M101.107 269.352c-.242 0-.49-.062-.712-.199a1.388 1.388 0 0 1-.478-1.905 30.088 30.088 0 0 1 2.064-3.003c-.786-13.89 2.513-44.678 2.655-46 .083-.762.78-1.304 1.531-1.232a1.39 1.39 0 0 1 1.233 1.532c-.036.325-3.505 32.692-2.613 46.06.023.358-.093.713-.326.99-.01.012-1.092 1.3-2.161 3.08-.26.436-.72.677-1.193.677M255.477 220.916a1.39 1.39 0 0 1-.216-2.763l17.198-2.727c-1.13-5.029-5.29-22.083-11.233-29.323-6.774-8.26-17.176-8.35-17.301-8.35h-.003a1.39 1.39 0 0 1-.001-2.778h.005c.548 0 11.868.118 19.45 9.365 7.412 9.033 11.926 31.02 12.115 31.952a1.392 1.392 0 0 1-1.145 1.65l-18.65 2.958a1.46 1.46 0 0 1-.218.016" fill="#201d1c"/><path d="M267.091 289.827c-1.137 0-2.141-.512-2.845-1.481-1.64-2.255-1.404-6.758.516-9.828 1.33-2.127.985-4.43.56-4.827.012.039-.12.104-.313.261-.73.61-1.373 1.398-1.995 2.16-1.135 1.389-2.207 2.7-3.768 2.708h-.011c-.915 0-1.773-.472-2.55-1.405-2.698-3.238-2.31-9.317.865-13.55 1.434-1.91-.891-14.797-3.865-25.635a1.39 1.39 0 1 1 2.679-.738c1.536 5.599 6.322 24.158 3.408 28.039-2.322 3.099-2.777 7.914-.952 10.104.297.357.452.412.454.412.272-.085 1.063-1.054 1.587-1.694.671-.822 1.434-1.756 2.369-2.535 1.575-1.313 3.044-.985 3.899-.238 1.808 1.577 1.803 5.508-.012 8.41-1.37 2.196-1.487 5.53-.623 6.722.203.279.417.415.93.29 3.062-.765 9.477-8.055 9.87-11.981.325-3.24-2.942-7.903-4.228-9.428a1.394 1.394 0 0 1-.325-.987c.891-13.36-3.064-45.718-3.104-46.04a1.39 1.39 0 0 1 1.21-1.55c.753-.121 1.453.449 1.548 1.207.162 1.323 3.926 32.122 3.152 46.022 1.207 1.536 4.948 6.695 4.513 11.052-.519 5.168-7.864 13.376-11.964 14.403-.344.084-.68.127-1.005.127M132.282 348.82c-3.297 0-6.302-.364-8.276-1.293-2.019-.949-2.671-2.295-2.864-3.259-1.527-7.628 16.808-14.567 16.994-14.63a1.392 1.392 0 0 1 .881 2.637c-2.77.937-16.013 7.133-15.15 11.45.098.49.543.92 1.323 1.29 5.282 2.475 20.48.065 23.644-1.637 2.125-1.142 2.363-8.173 1.857-12.565a1.391 1.391 0 0 1 1.221-1.54c.752-.069 1.452.458 1.54 1.22.245 2.133 1.242 12.888-3.3 15.333-2.5 1.346-10.846 2.994-17.87 2.994M251.02 348.82c-7.025 0-15.373-1.648-17.87-2.994-4.541-2.445-3.545-13.2-3.299-15.333.088-.76.769-1.286 1.539-1.22.762.09 1.309.778 1.221 1.538-.519 4.524-.285 11.414 1.856 12.567 3.164 1.704 18.36 4.11 23.645 1.637.78-.37 1.225-.8 1.323-1.29.854-4.27-12.39-11.36-15.169-12.36a1.404 1.404 0 0 1-.855-1.768 1.374 1.374 0 0 1 1.739-.867c.189.062 18.525 7.962 17.01 15.538-.193.964-.845 2.31-2.865 3.26-1.971.928-4.978 1.292-8.275 1.292M151.314 127.782c0 6.196-3.26 11.22-7.28 11.22-4.018 0-7.277-5.024-7.277-11.22 0-6.196 3.26-11.22 7.278-11.22 4.02 0 7.279 5.024 7.279 11.22" fill="#201d1c"/><path d="M145.551 122.476a3.487 3.487 0 1 1-6.974-.002 3.487 3.487 0 0 1 6.974.002" fill="#fff"/><path d="M240.771 127.782c0 6.196-3.259 11.22-7.279 11.22-4.018 0-7.277-5.024-7.277-11.22 0-6.196 3.259-11.22 7.277-11.22 4.02 0 7.28 5.024 7.28 11.22" fill="#201d1c"/><path d="M235.009 122.476a3.487 3.487 0 1 1-6.974-.002 3.487 3.487 0 0 1 6.974.002" fill="#fff"/><path d="M189.539 170.982c-12.474 0-20.753-4.097-21.267-4.361a1.385 1.385 0 0 1-.608-1.864 1.397 1.397 0 0 1 1.866-.614c.181.095 18.261 8.994 41.01-.05a1.399 1.399 0 0 1 1.804.778 1.391 1.391 0 0 1-.78 1.805c-8.123 3.229-15.627 4.306-22.025 4.306M111.21 298.845c-.923 0-1.824-.184-2.67-.608-.703-.352-1.121-.844-1.65-1.467l-.581-.668a1.39 1.39 0 0 1 .105-1.962 1.383 1.383 0 0 1 1.962.105l.63.725c.403.475.589.687.778.782 2.728 1.37 7.62-2.069 9.777-5.035.479-.659.786-3.376-.33-8.165-1.447-6.22-4.234-11.496-6.775-12.834-3.385-1.786-9.789-1.272-13.434 1.07-1.008.648-2.196 1.71-2.12 3.082.063 1.118.667 3.01 1.702 5.32.313.7 0 1.522-.7 1.833-.705.322-1.523 0-1.838-.7-1.202-2.686-1.856-4.806-1.937-6.3-.118-2.112 1.087-4.093 3.392-5.572 4.436-2.853 12.021-3.409 16.23-1.191 4.015 2.11 6.92 9.218 8.188 14.662.543 2.334 1.618 8.025-.13 10.429-2.185 3.007-6.607 6.494-10.6 6.494" fill="#201d1c"/><path d="M48.587 314.78l-3.62 25.06 22.903-.552 43.476-51.22c-.302-2.037-1.75-9.126-7.382-10.8l-55.377 37.513zm-5.23 27.876a1.383 1.383 0 0 1-1.374-1.586l3.942-27.294c.056-.388.272-.733.596-.953l56.404-38.206a1.398 1.398 0 0 1 1.08-.206c9.081 2.016 10.14 13.49 10.18 13.975.031.369-.085.736-.324 1.015L69.587 341.56c-.257.305-.63.48-1.026.49l-25.17.606h-.034" fill="#201d1c"/><path d="M44.267 341.443a1.39 1.39 0 0 1-.925-2.426c17.253-15.425 62.04-55.546 64.663-58.256.165-.25.411-.449.716-.551.619-.195 1.321.05 1.651.62.23.4.384.663-.782 1.977l.012.04c-.02.01-.042.014-.066.02-2.361 2.634-9.856 9.365-31.817 29.083-16.25 14.59-32.526 29.141-32.526 29.141a1.386 1.386 0 0 1-.926.353M213.477 64.125a1.389 1.389 0 0 1-1.368-1.157l-7.734-45.486c-.016-.331.087-6.374-3.878-10.331-2.472-2.464-6.053-3.625-10.632-3.523-4.506.125-8.009 1.51-10.41 4.112-4.003 4.34-3.711 10.733-3.709 10.798.007.14-.005.28-.039.413L164.79 62.618a1.393 1.393 0 0 1-1.684 1.013 1.39 1.39 0 0 1-1.01-1.686l10.868-43.478c-.034-1.307.04-7.815 4.428-12.589 2.93-3.19 7.1-4.882 12.395-5.028 5.39-.12 9.66 1.316 12.693 4.355 4.811 4.817 4.664 11.792 4.655 12.085l7.714 45.212a1.394 1.394 0 0 1-1.372 1.623" fill="#201d1c"/><path d="M188.885 40.346c-4.864 0-10.395 1.884-11.339 7.167-.141.793.084 1.525.686 2.244 1.87 2.236 6.854 3.798 12.115 3.798 4.777 0 10.478-1.44 10.832-5.494.12-1.408-.357-2.71-1.422-3.871-2.14-2.335-6.407-3.844-10.872-3.844zm1.464 15.987h-.001c-5.095 0-11.477-1.482-14.248-4.79-1.13-1.35-1.575-2.912-1.289-4.518 1.244-6.972 8.088-9.458 14.074-9.458 5.288 0 10.239 1.819 12.92 4.744 1.59 1.734 2.331 3.805 2.141 5.99-.43 4.955-5.64 8.032-13.597 8.032M187.84 25.26c-2.946 0-6.24.836-6.655 3.183.327.945 5.501 3.057 10.727 3.057h.001c2.37 0 4.977-.52 5.18-1.977.07-.49-.102-.963-.523-1.448-1.42-1.632-5.092-2.814-8.73-2.814zm4.074 9.018h-.001c-4.53 0-10.692-1.517-12.747-3.97-.772-.923-.817-1.786-.717-2.347.606-3.431 4.117-5.48 9.391-5.48 3.758 0 8.563 1.167 10.826 3.77.953 1.096 1.362 2.361 1.18 3.657-.228 1.632-1.563 4.37-7.932 4.37M191.241 208.357c-21.077 0-41.656-3.582-42.697-5.666-.71-1.418-.47-9.846-.147-16.666.038-.765.732-1.42 1.455-1.322a1.386 1.386 0 0 1 1.322 1.453c-.292 6.135-.424 13.02-.184 14.971 5.131 1.699 49.625 9.149 72.957-.062.44-2.336 1.718-9.911.884-15.462a1.39 1.39 0 0 1 1.169-1.58 1.386 1.386 0 0 1 1.581 1.167c1.066 7.115-.971 16.763-1.059 17.17a1.387 1.387 0 0 1-.823.993c-8.893 3.705-21.768 5.005-34.458 5.005M195.032 256.423c-38.717 0-71.327-3.937-71.816-3.997a1.388 1.388 0 0 1-1.209-1.55c.094-.76.812-1.286 1.55-1.208.73.09 73.772 8.902 130.92.01.782-.108 1.468.404 1.587 1.16a1.392 1.392 0 0 1-1.16 1.587c-19.283 3-40.355 4.002-59.872 4.002" fill="#201d1c"/></svg>