<svg xmlns="http://www.w3.org/2000/svg" viewBox="0 0 361.42 361.42">
  <path fill="#e4e5e5" d="M299.45 340.57c0 11.05-48.5 20-108.33 20s-108.34-8.95-108.34-20c0-11.04 48.5-20 108.34-20 59.83 0 108.33 8.96 108.33 20"/>
  <path fill="#816f69" d="M123.22 206.85c2.17-2.82 9.35-3.73 12.53-4 .27-4.02 1.1-16.96 1.18-22a61 61 0 0 1-3.7-2.3c-.26.18-.6.3-.96.24-.37-.1-9.28-.9-15.97 7.3-5.94 7.2-10.1 24.3-11.23 29.3l16.4 2.6c.38-5.9 1-10.2 1.75-11.2"/>
  <path fill="#d2d2ca" d="M108 280.76c.1-.13.24-.18.36-.28-1.06-1.42-2.47-2.64-4.4-3.2l-55.37 37.5-3.3 22.45c18.4-16.52 60.1-53.86 62.6-56.47"/>
  <path fill="#f8b80e" d="M243.42 330.43c-2.54 1.1-7.72 1.45-10.86.94-.44 4.5-.15 10.9 1.9 12 3.17 1.7 18.37 4.12 23.65 1.65.8-.37 1.3-.8 1.4-1.3.9-4.27-12.4-11.36-15.1-12.36-.4-.15-.7-.52-.8-.93m-98.4 2.54c-1.9 0-3.9-.27-5.5-.96-.1.2-.3.3-.4.3-2.8 1-16 7.2-15.1 11.5.1.5.6.9 1.3 1.3 5.3 2.5 20.5.1 23.7-1.6 1.9-1 2.3-6.6 2-11-1.4.3-3.6.6-5.8.6m59.3-316.3c-.1-1.7-.6-6.3-3.8-9.6-2.4-2.4-6-3.6-10.6-3.5-4.5.1-8 1.5-10.4 4.1-2.8 3.1-3.5 7.3-3.6 9.4a176.54 176.54 0 0 1 14.9-.8c4.8 0 9.3.1 13.6.5"/>
  <path fill="#b0b1af" d="M112.46 269.72c-3.4-1.8-9.8-1.27-13.44 1.07-1 .6-2.2 1.7-2.12 3 .05.9.47 2.3 1.16 4l4.86-3.3a1.4 1.4 0 0 1 1.08-.2c9.1 2 10.14 13.5 10.18 14 .04.3-.08.7-.32 1l-4.8 5.6c.36.4.55.6.72.7 2.73 1.4 7.62-2.1 9.78-5 .48-.7.8-3.4-.33-8.2-1.45-6.3-4.23-11.5-6.77-12.9"/>
  <path fill="#d2d2ca" d="M109.7 282.66l-.1.15v.1h-.06c-2.37 2.7-9.86 9.4-31.82 29.1a23128.32 23128.32 0 0 1-31.08 27.9l21.23-.5 43.48-51.2c-.15-1-.58-3.2-1.64-5.4"/>
  <path fill="#8f7973" d="M161.77 61.85h.35l10.4-41.58c-52.42 6.3-68.08 36.1-71.5 44.63 12.42-2.5 39.47-3.05 60.75-3.05"/>
  <path fill="#f8b80e" d="M114.22 84.67a1.37 1.37 0 0 1 1-.05c.07.02.1.07.17.1 14.8.6 41.4.96 73 .96 46.6 0 82.6-.8 85.4-1.94 2.7-1.18 4.7-4.15 5-7.57.2-2.74-.7-5.12-2.6-6.36-3.6-1.9-60.5-5.1-114.7-5.1-32.5 0-54.2 1.3-62.6 3.6-2.8.8-4.3 2.2-4.4 4.3-.3 4.1 4.3 9.7 8.2 11.4.8.4 4.8.7 11.2.9"/>
  <path fill="#884e2e" d="M119.25 164.94c-3.82-5.37-6.5-11.2-8.33-17.15h-1.56c-2.2 0-6.47-.4-10.43-2.6.65 3.4 5.77 26.5 26.8 27.1-2.38-2.3-4.55-4.8-6.48-7.5"/>
  <path fill="#fde29a" d="M110.14 145.08c-2.58-9.7-3.04-19.62-2.5-28.55-2.36.33-8.84 1.62-12.26 6-1.97 2.52-2.64 5.74-1.98 9.56 2.28 13.3 14.4 13.1 16.73 12.9"/>
  <path fill="#884e2e" d="M112.85 87.37c-5.82-.28-9.88-.63-10.9-1.07-.16-.06-.3-.17-.47-.24-.4 1.16-6.33 18.52-4.96 31.66 4.37-3.04 9.7-3.84 11.3-4 1.04-12.33 3.78-22.3 5.03-26.35"/>
  <path fill="#fde29a" d="M121.3 220.82l-13.9-2.2c-.15 1.34-3.5 32.84-2.6 46 0 .34-.1.7-.34.98l-.45.57c3.6-.55 7.3-.23 9.8 1.1 2.3 1.18 4.2 3.98 5.7 7.15 1-2.45.4-6.27-1.6-8.9-2.9-3.86 1.2-20.57 2.6-25.6.1-.4.4-.7.8-.87-.1-6.16 0-12.67.3-18.23"/>
  <path fill="#8f7973" d="M240.94 202.78c3.08.1 9.72.56 12.5 2.62.93.7 1.9 2.67 2.45 12.65l16.5-2.62c-1.2-5.03-5.3-22.1-11.3-29.33-6.8-8.26-17.2-8.35-17.3-8.35-.4 0-.8-.17-1-.44-.7.5-1.4 1.1-2.2 1.5 1.7 5.4.7 18.8.2 24"/>
  <path fill="#5d504c" d="M183.37 264.72c-25.1 0-49-.86-57-2.94 4 25 10.87 64.16 13.07 67.02 2.22 2.22 9.4 1.28 11.77.66.9-1.85 3.3-10.1 5.5-17.45 4.4-15 7.4-25 9-26.8 3.5-4.1 47.2-2.1 49.7-1.3 1.7.6 3.2 4.3 9.3 23.2 2.7 8.4 6.4 19.8 7.8 21.5 2.6.7 8.6.2 10.2-.6 1.6-3.9 7.3-42.3 10.6-66 0 0 0-.1.1-.1-7.5 1.9-39.4 3.1-69.7 3.1"/>
  <path fill="#fde29a" d="M269 116.53c.24 8.87-.54 18.86-3.45 28.6.2-.07.38-.1.58-.08.6.05 14.66 1.44 17.13-12.95.65-3.83 0-7.05-1.98-9.57-3.44-4.4-9.93-5.67-12.27-6"/>
  <path fill="#884e2e" d="M265.82 147.8a1.38 1.38 0 0 1-.94-.53c-2 6-4.84 11.85-8.82 17.24-1.97 2.7-4.17 5.1-6.55 7.4 18.2-.8 25.2-19.3 27.1-26-3.6 1.7-7.3 2-9.2 2H266"/>
  <path fill="#fde29a" d="M256.36 237.5c1.54 5.6 6.33 24.15 3.4 28.03-2.3 3.1-2.76 7.92-.94 10.1.3.37.45.42.45.42.28-.1 1.07-1.05 1.6-1.7.66-.82 1.43-1.75 2.36-2.53 1.58-1.3 3.04-.98 3.9-.24 1.8 1.58 1.8 5.5 0 8.4-1.38 2.2-1.5 5.54-.64 6.74.2.27.4.4.9.3 3-.78 9.5-8.07 9.9-12 .3-3.24-3-7.9-4.3-9.42a1.4 1.4 0 0 1-.4-1c.8-12.94-2.8-43.74-3.1-45.9l-13.6 2.15c.1 4.24.3 9.68.3 16.64"/>
  <path fill="#884e2e" d="M264.6 87.34c.1.14.2.3.24.46.07.23 3.34 11.2 4.07 25.9 1.7.2 6.8 1 11.1 3.9.5-13.47-4.8-27.24-6.3-30.98-1.7.28-4.9.52-9 .72"/>
  <path fill="#8f7973" d="M190.35 53.55c4.77 0 10.48-1.43 10.83-5.5.12-1.4-.36-2.7-1.42-3.86-2.14-2.4-6.4-3.9-10.87-3.9-4.9 0-10.4 1.9-11.4 7.1-.2.8.1 1.5.7 2.2 1.8 2.2 6.8 3.8 12.1 3.8m1.5-22.1c2.3 0 5-.6 5.2-2 0-.5-.1-1-.6-1.5-1.4-1.7-5.1-2.8-8.8-2.8-3 0-6.3.8-6.7 3.2.3.9 5.5 3 10.7 3"/>
  <path fill="#f8b80e" d="M188.88 37.57c5.3 0 10.24 1.82 12.92 4.74 1.6 1.8 2.34 3.9 2.15 6-.44 5-5.65 8.1-13.6 8.1-5.1 0-11.48-1.5-14.25-4.8-1.13-1.3-1.58-2.9-1.3-4.5 1.25-7 8.1-9.4 14.08-9.4zm-10.43-9.6c.6-3.44 4.12-5.5 9.4-5.5 3.75 0 8.55 1.18 10.82 3.78.95 1.1 1.36 2.36 1.18 3.66-.23 1.7-1.57 4.4-7.94 4.4-4.5 0-10.6-1.5-12.7-3.9-.8-.9-.8-1.8-.7-2.3zm33.6 34.73l-7.33-43.2a163.08 163.08 0 0 0-13.97-.4c-5.42.05-10.5.36-15.3.85L165 61.85c14.77.05 31.3.36 47.08.85"/>
  <path fill="#8f7973" d="M214.85 62.5c.02.1 0 .2 0 .3 27.62.9 52.4 2.37 60.5 3.93-2.1-8.8-13.56-41.83-67.8-46.95l7.3 42.72"/>
  <path fill="#f8b80e" d="M226.52 202.36a1.4 1.4 0 0 1-.82 1c-8.9 3.7-21.77 5-34.46 5-21.08 0-41.66-3.6-42.7-5.67-.7-1.5-.47-9.8-.15-16.6a71.52 71.52 0 0 1-8.8-3.8c-.2 6.8-1.2 21.2-1.2 21.9a1.4 1.4 0 0 1-1.3 1.3c-4.1.2-10.5 1.3-11.7 3-1.6 2.8-2.3 27.2-1.2 41.2 7.2.8 75.1 8.3 129.3 0 .2-34.1-1.1-41.2-1.9-42.3-2-1.4-8.6-2-12.3-2-.4 0-.8-.2-1.1-.5a1.4 1.4 0 0 1-.3-1.1c.7-7.3 1.4-19.2.3-23.8a71.42 71.42 0 0 1-10.7 5.1c1 7.1-1 16.6-1.1 17"/>
  <path fill="#fde29a" d="M233.5 139c-4.03 0-7.3-5.02-7.3-11.22.02-6.2 3.27-11.22 7.3-11.22 4 0 7.27 5.03 7.27 11.22S237.5 139 233.5 139zm-21.94 27.68c-8.12 3.23-15.62 4.3-22.02 4.3-12.48 0-20.75-4.1-21.27-4.36a1.4 1.4 0 0 1-.6-1.86 1.4 1.4 0 0 1 1.86-.62c.18.1 18.26 9 41-.05a1.4 1.4 0 0 1 1.8.7 1.4 1.4 0 0 1-.77 1.8zM144.03 139c-4 0-7.27-5.02-7.27-11.22 0-6.2 3.26-11.22 7.28-11.22 4.02 0 7.27 5.03 7.27 11.22S148.1 139 144.1 139zM262.2 88.62a1.36 1.36 0 0 1 .17-1.17c-15.16.66-40.43.9-57.33.97 1.16 7.73 4.75 32.58 3.87 36.06-.9 3.73-13.7 17.9-18.2 20.22-.4.2-.9.43-1.5.43-.2 0-.5-.04-.7-.14-2.8-1.2-15.3-13.9-17.1-18.1-1.8-4.1 1.9-31.2 3-38.6-16.4-.1-42.4-.3-58.5-1-2.2 7.1-13.7 48.3 5.8 75.8 2.4 3.4 5.2 6.4 8.4 9.1.2.1.4.2.6.4 12.8 10.8 31.6 16.2 56.2 16.2 21.2 0 38.3-4 51.2-11.9.1-.2.2-.3.4-.4a1.36 1.36 0 0 1 .6-.2c6-3.8 11-8.4 15-13.9 21.8-29.4 8.5-73.8 8.4-74.3"/>
  <path fill="#8f7973" d="M124.5 252.57c.34 3.18.8 5.5 1.43 6.4 5.72 4.37 118.93 4.1 127.55-.33l.03-2.9.1-3.13c-18.9 2.9-39.4 3.9-58.5 3.9-34.5 0-64.2-3.1-70.5-3.8m52.5-164.1c-2 14.2-4.3 34.9-3.2 37.4 1.7 3.7 12.9 15 15.4 16.5 3-1 16.2-15.4 17-18.5.6-2.4-2.1-22.5-4-35.3h-25.2m-25.9 98.7c-.3 5.9-.4 12.2-.1 14.1 5.2 1.7 49.6 9.2 73 0 .4-2.2 1.6-9.2 1-14.7-10.8 3.7-23.6 5.6-38.2 5.6-13.5 0-25.3-1.6-35.5-4.9"/>
  <path fill="#f8e907" d="M142.06 119a3.5 3.5 0 1 0 0 6.96 3.5 3.5 0 0 0 0-6.97m89.46 0a3.5 3.5 0 1 0 0 6.9 3.5 3.5 0 0 0 0-7"/>
  <path fill="#fccd7d" d="M182.9 188.23c-7.54-2.54-15.9-2.3-23.1-5.7-8.18-3.85-13.56-11.78-18.34-19.46-4.1-6.57-8.1-13.33-10.17-20.8-3.8-13.46-.6-28.66 8.2-39.52 5.5-6.85 13.2-11.85 21.6-14.4-15.2-.12-33.2-.36-45.5-.85-2.3 7.18-13.8 48.36 5.8 75.84 2.4 3.38 5.2 6.43 8.3 9.15.2.1.4.2.5.4 12.6 10.5 31 16 54.8 16.2a51.8 51.8 0 0 0-2.4-.9m92.2-65.4c1.2-1.2 3-1.9 4.7-1.9-3.6-3.1-8.7-4.1-10.7-4.4.2 8.8-.6 18.8-3.5 28.6.2-.1.4-.1.6-.1.4 0 5.4.5 10-2.1l-.1-.1c-3.9-1.8-4.8-7.1-4.3-11.4.3-3.2 1.1-6.5 3.3-8.7m-167.4-6.3c-1.4.2-4.3.7-7.2 2.1l.2.1c1.3.7 2 2.3 2.6 3.7 1.4 3.8 2.3 7.9 1.4 11.9-.8 3.2-3.1 6.2-6.1 7.4 4.4 3.5 10 3.4 11.5 3.3-2.6-9.7-3.1-19.7-2.5-28.6m5.7 103c1.6 1.4 2.1 4.2 2.2 6.5a139.48 139.48 0 0 1-1.9 26.2c-.5 3-1.1 6-.9 9.1.1 1.9.5 3.8.7 5.7l.3.1c2.3 1.2 4.1 4 5.6 7.1.9-2.5.3-6.3-1.7-8.9-2.9-3.9 1.2-20.6 2.6-25.6.1-.4.4-.7.7-.9-.1-6.2 0-12.7.3-18.3L113 219m151 48c2.2-6.7.1-13.9-1.1-20.82-1.6-8.9-1.63-18.03-.25-27l-6.9 1.1c.15 4.27.26 9.7.3 16.66 1.54 5.6 6.33 24.13 3.4 28-2.3 3.1-2.76 7.9-.94 10.1.3.36.5.4.5.4.3-.1 1.1-1.1 1.6-1.7.7-.84 1.4-1.8 2.4-2.55 1.6-1.3 3-1 3.9-.2 1.8 1.6 1.8 5.5 0 8.4-1.4 2.2-1.5 5.5-.6 6.7.2.2.4.3.8.3-.1-.5-.1-1-.1-1.5.2-3.3 3-5.8 4-8.9 1.4-4.4-2.4-9.9-6.9-9"/>
  <path fill="#794429" d="M107.83 113.7c1.02-12.3 3.77-22.3 5.02-26.33-5.82-.28-9.88-.63-10.9-1.07-.16-.06-.3-.17-.47-.24-.13.37-.85 2.5-1.7 5.6.63-.4 1.32-.74 2.04-1a36.97 36.97 0 0 0-2.26 14.73c4.4-1.8 3.33-10 7.92-11.2-2.4 6.5-3.76 13.4-4.02 20.3a28.74 28.74 0 0 1 4.37-.9m10.73 50.5c-3.82-5.4-6.5-11.2-8.34-17.2h-1.55a23.4 23.4 0 0 1-2.67-.1c1.15 5.3 3.37 10.5 6.55 14.9 2.9 4 6.88 7.6 11.38 9.6.37 0 .7.1 1.1.1-2.37-2.3-4.55-4.8-6.47-7.5M264.6 87.3c.1.15.2.3.2.47.02.22 3.3 11.2 4.02 25.9.8.1 2.4.34 4.3.87-1.14-7.13-1.73-14.34-1.7-21.56 2.77 1.8 4.55 5.07 4.56 8.4 0 1.77.37 4.42 2.1 4.1l-.5-6.64c-1.48-5.8-3.26-10.34-4.06-12.26-1.75.3-4.9.53-9 .73m5.86 60.3a23.4 23.4 0 0 1-3.14.3h-1.48a1.38 1.38 0 0 1-.96-.5c-2 6-4.82 11.9-8.8 17.3-1.97 2.7-4.17 5.1-6.55 7.4 1.75-.1 3.34-.3 4.87-.7 3.83-2.3 7.22-5.1 9.7-8.8 2.07-3.1 3.4-6.6 4.7-10.1l1.7-4.5"/>
  <path fill="#816f69" d="M188.13 97.1c2.47-4.1 6.44-7.5 11.02-8.66-5.25.02-9.13.02-10.7.02-1.63 0-5.8 0-11.42-.02-2.04 14.18-4.35 34.87-3.22 37.4 1.7 3.66 12.9 15.02 15.5 16.47.2 0 .4-.1.6-.2-1.1-1.7-2.3-3.3-3.3-5-4-6.9-4-15.5-3.1-23.4.7-5.7 1.8-11.5 4.8-16.4M101 64.9c6.22-1.25 16.07-2 27.02-2.46 2.42-9.5 8.17-18.02 15.2-24.92 6.4-6.28 13.86-11.35 21.5-16.08-46.17 8.16-60.46 35.38-63.7 43.46"/>
  <path fill="#f69514" d="M243.47 78.64c-12.5-.86-24.9-2.57-37.4-3.12-29.17-1.28-58.9 3.7-87.26-3.22-1.7-.42-3.5-.92-4.8-2.06-1.1-1-1.8-2.6-1.6-4.05-5.8.5-10.3 1.1-13.1 1.9-2.8.8-4.2 2.1-4.4 4.2-.3 4 4.4 9.7 8.2 11.3.9.3 4.8.6 11.2.9a1.37 1.37 0 0 1 1-.1c.1 0 .1 0 .2.1 14.8.6 41.5.9 73.1.9 46.7 0 82.6-.8 85.5-1.9 2.8-1.2 4.8-4.2 5.1-7.6.1-.5 0-.9 0-1.3l-.3.1c-10.9 5.4-23.3 4.4-35.1 3.6M190 3.5c-4.5.1-8 1.5-10.4 4.1-2.9 3.1-3.56 7.26-3.7 9.4 2.86-.3 5.9-.47 9-.6 0-2.5.34-4.98 1.3-7.3.9-2.2 2.6-4.2 4.62-5.54-.3 0-.55-.04-.86-.03m-2.3 55.98A43.75 43.75 0 0 1 186 56c-3.97-.6-7.9-2.04-9.93-4.46-1.14-1.35-1.58-2.9-1.3-4.5.85-4.78 4.32-7.4 8.33-8.62.06-1.85.22-3.7.5-5.53-1.94-.7-3.6-1.6-4.47-2.6-.78-.9-.82-1.8-.72-2.4.6-3.3 3.8-5.3 8.6-5.5.4-.6.7-1.1 1.1-1.6a11.6 11.6 0 0 1 2-1.9 172.6 172.6 0 0 0-14.6.8l-10.5 42c7.6 0 15.6.1 23.7.2-.2-.9-.6-1.7-1-2.5"/>
  <path fill="#816f69" d="M188 25.27h-.16c-2.95 0-6.24.83-6.66 3.17.25.72 3.3 2.1 7.02 2.73a6.88 6.88 0 0 1-.8-4.13 4.6 4.6 0 0 1 .6-1.77m-1.68 15.28c-4.08.58-8 2.6-8.77 6.96-.15.8.08 1.6.68 2.3 1.32 1.6 4.2 2.8 7.6 3.4-1.68-4-1.55-8.7.5-12.6"/>
  <path fill="#f69514" d="M191.24 208.36c-21.08 0-41.65-3.6-42.7-5.67-.7-1.5-.47-9.8-.15-16.6a71.52 71.52 0 0 1-8.8-3.8c-.2 6.8-1.2 21.2-1.2 21.9a1.4 1.4 0 0 1-1.3 1.3c-4.1.2-10.5 1.3-11.7 3-1.6 2.8-2.3 27.2-1.2 41.2 2.9.3 15.6 1.7 33.4 2.8-8-8-7.6-22.8 1-30.2 4.2-3.6 9.7-5.4 15.1-6.8a183.47 183.47 0 0 1 16.2-3.4c6.8-1.1 14-2 20.1-5-6 .8-12.5 1.1-19 1.1"/>
  <path fill="#816f69" d="M207.4 190.5c-6.44.96-13.36 1.44-20.76 1.44-13.52 0-25.36-1.64-35.5-4.87-.27 5.9-.38 12.2-.15 14.06 2.3.8 13.3 2.82 26.6 3.85 4.1-6.32 13.1-8.1 20.7-10.55 3.1-1.02 6.1-2.37 9.1-3.92m53 17.2c-3.2 0-4.1-4.5-6.8-6.1-1.6-.9-3.5-.9-5.1-1.8-2.3-1.3-2.9-4.3-3.3-6.9-.4-2.2-.7-4.5-1.1-6.8-.4-2.7-1-5.6-2.6-7.7-.3.2-.6.5-.9.6 1.7 5.4.7 18.8.2 24 3.1.1 9.7.6 12.5 2.6.9.7 1.9 2.7 2.4 12.7l5.9-.9-1.4-9.4m-98.3 47.7c-19.1-1-33.4-2.5-37.5-2.9.3 3.2.8 5.5 1.4 6.4 2.2 1.7 20.9 2.7 43.3 3a48.7 48.7 0 0 1-7.3-6.5"/>
  <path fill="#4f4240" d="M250.28 262.12c-10.8 1.57-39.47 2.6-66.9 2.6-25.12 0-49.02-.86-57-2.94 3.98 25 10.86 64.16 13.06 67.02 2.22 2.22 9.4 1.28 11.77.66.9-1.85 3.3-10.1 5.5-17.45 4.4-15 7.4-25 9-26.8 3.5-4.1 47.2-2.1 49.7-1.3 1.7.6 3.2 4.3 9.3 23.2 2.7 8.4 6.4 19.8 7.8 21.5 1.5.4 3.9.4 6.1.2-2.7-4.2-4.9-8.7-6.4-13.4-1.5-4.5-2.4-9.2-3.1-13.9-1.7-10.3-2-22.3 5.6-29.4 4.5-4.2 11.3-6.1 15.9-9.8"/>
  <path fill="#f69514" d="M145.88 332.94c.44.76.7 1.64.63 2.5-.1 2.25-1.7 4.17-3.5 5.48-5 3.62-12.4 2.93-17.2-.94-1.3 1.3-2.1 2.6-1.9 3.75.1.48.6.92 1.3 1.28 5.3 2.5 20.5.1 23.7-1.6 1.9-1 2.3-6.7 2-11a32.3 32.3 0 0 1-4.9.6m92.4 4.6c-1.2-1.7-1.9-3.8-1.8-5.9-1.4.1-2.7 0-3.8-.2-.4 4.5-.1 10.9 1.9 12 3.2 1.7 18.4 4.1 23.7 1.7.8-.3 1.3-.8 1.4-1.3.2-.6-.1-1.3-.5-2.1-2.8 1.1-5.8 1.8-8.8 1.7-4.5-.1-9.2-2.1-11.8-5.8"/>
  <path fill="#b0b1af" d="M45.34 337.23c18.47-16.52 60.14-53.86 62.66-56.47.1-.13.24-.18.36-.28-.38-.5-.82-.97-1.3-1.4-11.12 9-21.44 19-33.12 27.24-5.46 3.85-11.2 7.3-16.5 11.36-3.74 2.87-7.24 6.04-10.62 9.34l-1.48 10.2m64.37-54.56l-.1.15v.1c-2.3 2.7-9.8 9.4-31.8 29.1a23128.32 23128.32 0 0 1-31.1 27.9l9.9-.2c5.7-6.4 11.6-12.6 17.9-18.4 12.7-11.6 26.9-22.5 36.1-36.7a16.76 16.76 0 0 0-.7-1.8"/>
  <path fill="#facc0b" d="M227.94 213.88c-1.92 1.3 2.44 11.12 8 11.12 5.55 0-1.4-15.64-8-11.12m-.04 13.3c-2.52 1.36 1.83 7.08 4.8 6.85 2.98-.23.23-9.6-4.8-6.86"/>
  <path fill="#fff" d="M191.12 1.64s8.34 6.6 10.08 9.73c1.73 3.12 1.4 6.6 1.4 6.6l6.93 45.15 3.82-.34-7.64-44.47s.7-15.9-14.5-16.6"/>
  <path fill="#fff" d="M207.1 18.3s34.04 8 48.63 21.55c14.6 13.55 17.02 27.44 17.02 27.44l4.52.3s-13.9-46.9-70.17-49.4m-69.82 44.5s131.65 8 136.17 8.3c4.5.3 7.64 3.8 7.64 3.8s-2.8-4.9-5.6-6.3c-2.8-1.4-84.4-7.3-138.3-5.9M263 92c2.46 18.86 7.1 91.14-63.22 96.57-2 .16-3.8.3-5.5.46 17.7-.85 32.22-4.75 43.52-11.63.1-.15.3-.28.4-.38a1.36 1.36 0 0 1 .6-.2c6-3.8 11-8.43 15.1-13.9 18.28-24.75 11.83-60.03 9.23-70.9m-1.83 94.13c-6.25-7.6-15.54-8.28-17.08-8.34 3.3 1.3 12.4 5.2 16.1 10.8 3.43 5.4 8.3 20.4 10.4 27.2l1.77-.3c-1.2-5-5.3-22.1-11.3-29.3m-22.9 19s10 2.2 11.1 5c1 2.8 1.7 47.6 1.7 50.4 0 2.8-1 1.7-1 1.7l5.1-2.4s-.7-31.9-1.4-39.2c-.7-7.3-.6-15-.6-15s-14-3.2-15.1-.3m34.7 60.5a1.4 1.4 0 0 1-.4-.9c.8-12.9-2.9-43.7-3.1-45.9l-2.1.3c.4 3.1 4.4 33.8 3.8 47 0 0 4.1 4.2 4.1 8 0 2.8-4 8.7-7.2 12.6 3.3-1.7 8.6-8 8.9-11.5.3-3.2-2.9-7.9-4.2-9.4m-21.8 8.9c-3.1 15.2-8.6 41.3-11.5 54.1 1.1-.1 2.1-.4 2.7-.6 1.3-3.2 5.5-30.6 8.7-53.4m8.2-105.2c10.8-5.5 15.5-18.1 17-23.4-1 .5-1.9.8-2.9 1.1-3 8.8-7.5 17-14.2 22.3m19.5-52.3l.9.6c.1-3.6-.2-7.1-.7-10.5 0 2.7 0 6.1-.3 9.9m-75.1 6.8c-.8 1.6-7.47 10.8-12.3 16.9 4.84-4.1 14-14.3 14.65-16.9.5-2-1.27-16.4-3-28.5.6 10.4 1.44 27 .65 28.5"/>
  <path fill="#201d1c" d="M161.77 64.63c-32.53 0-54.16 1.23-62.55 3.54-2.8.78-4.24 2.16-4.38 4.24-.28 4.1 4.35 9.7 8.2 11.4 2.82 1.1 38.75 2 85.42 2s82.6-.8 85.43-1.9c2.7-1.2 4.7-4.1 5-7.5.2-2.7-.7-5.1-2.6-6.3-3.6-1.9-60.5-5.1-114.7-5.1zm26.7 23.83c-8.35 0-81.63-.06-86.53-2.16-4.87-2.08-10.24-8.7-9.88-14.08.13-1.9 1.13-5.27 6.42-6.73 10.9-3.1 40.44-3.7 63.3-3.7 46.02 0 111.87 2.8 116.15 5.6 2.73 1.8 4.15 5.1 3.8 8.9-.4 4.4-3.06 8.3-6.75 9.8-4.9 2.1-78.18 2.1-86.52 2.1"/>
  <path fill="#201d1c" d="M277.16 70.04a1.4 1.4 0 0 1-1.38-1.2c-.3-2.06-8.14-50.65-85.03-49.75-77.06.8-90.43 47.6-90.56 48.1-.2.7-1 1.1-1.7.9a1.4 1.4 0 0 1-1-1.7c.1-.5 13.9-49.3 93.2-50.2 79.5-.9 87.7 51.6 87.8 52.1a1.4 1.4 0 0 1-1.4 1.6m-90.5 121.9c-32 0-54.7-9.1-67.4-27-22.2-31.2-6.5-77.5-5.8-79.5a1.4 1.4 0 1 1 2.6.9c-.2.5-15.9 46.9 5.4 76.9 12.2 17.2 34.1 25.8 65.1 25.8 31.6 0 54.3-8.9 67.2-26.3 21.7-29.4 8.5-73.8 8.3-74.3a1.4 1.4 0 1 1 2.6-.8c.1.4 13.8 46.1-8.8 76.7-13.5 18.2-36.9 27.4-69.5 27.4"/>
  <path fill="#201d1c" d="M109.36 147.87c-4.23 0-16.3-1.26-18.7-15.3-.8-4.64.06-8.6 2.54-11.76 4.98-6.3 14.7-7.1 15.1-7.1.8-.1 1.43.5 1.5 1.3a1.4 1.4 0 0 1-1.3 1.5c-.08 0-8.9.7-13.12 6.1-1.97 2.5-2.64 5.8-1.98 9.6 2.47 14.4 16.52 13 17.12 13a1.4 1.4 0 0 1 1.54 1.3 1.4 1.4 0 0 1-1.23 1.6c-.03.1-.57.1-1.47.1m157.93 0h-1.5a1.4 1.4 0 0 1-1.2-1.5c0-.7.7-1.3 1.5-1.2.6.1 14.6 1.5 17.1-12.9.6-3.8 0-7-2-9.5-4.2-5.3-13.1-6.1-13.2-6.1a1.4 1.4 0 0 1-1.3-1.4c0-.8.7-1.4 1.4-1.3.4 0 10.1.8 15.1 7.2 2.5 3.2 3.3 7.2 2.5 11.8-2.4 14-14.5 15.3-18.7 15.3"/>
  <path fill="#201d1c" d="M95.2 120.08c-.68 0-1.28-.5-1.37-1.22C92 104.6 98.63 85.8 98.9 85a1.4 1.4 0 0 1 1.78-.83c.73.26 1.1 1.06.84 1.78-.06.18-6.68 18.96-4.93 32.56a1.4 1.4 0 0 1-1.4 1.6m31.3 55.2c-25.3 0-30.4-29.6-30.5-29.9a1.4 1.4 0 0 1 1.1-1.6c.7-.1 1.4.4 1.6 1.2.2 1.2 5.1 29.6 30.3 27.5.8 0 1.4.5 1.5 1.3a1.4 1.4 0 0 1-1.3 1.5c-1 .1-2 .2-2.9.2M281.2 121a1.4 1.4 0 0 1-1.32-1.5c1.3-16.24-6.6-33.7-6.7-33.9a1.4 1.4 0 0 1 2.5-1.13c.35.74 8.34 18.27 6.96 35.27a1.4 1.4 0 0 1-1.4 1.28m-32.9 53.73c-.57 0-1.14 0-1.73-.04a1.4 1.4 0 0 1-1.3-1.4c.1-.7.7-1.4 1.5-1.3 24.5 1.3 30.4-28.1 30.4-28.4a1.4 1.4 0 1 1 2.8.5c-.1.3-6.2 30.8-31.6 30.8m-59.2-29.5c-.2 0-.5 0-.7-.1-2.8-1.1-15.3-13.9-17.1-18-1.9-4.2 2.3-33.6 3.1-39.4.1-.7.8-1.2 1.6-1.1a1.4 1.4 0 0 1 1.2 1.6c-2 14.2-4.4 35.4-3.3 37.9 1.6 3.7 12.9 15 15.4 16.5 3-1 16.3-15.4 17-18.5.6-2.4-2.2-23.5-4.1-36.3a1.4 1.4 0 0 1 1.2-1.6c.8-.1 1.5.4 1.6 1.2.8 5.6 5 33.7 4.1 37.4-.9 3.8-13.7 17.9-18.3 20.2-.4.2-.9.5-1.5.5M183.6 265c-29.64 0-57.7-1.2-59.73-4.2-3.8-5.6-3.07-50.2-.4-53.7 2.2-2.8 9.35-3.73 12.54-4 .3-4.2 1.2-18.23 1.2-22.66a1.4 1.4 0 1 1 2.8 0c0 5.3-1.2 23.3-1.2 24.03a1.4 1.4 0 0 1-1.3 1.3c-4.1.2-10.4 1.3-11.7 3-2.2 3.7-2.7 45.8.5 50.4 5.7 4.4 118.9 4.1 127.5-.3l.1-2.9c.4-39.23-1-47.04-1.8-48.2-1.9-1.44-8.6-2-12.2-2-.4 0-.8-.2-1-.47a1.4 1.4 0 0 1-.4-1.1c.9-8.26 1.6-22.4-.2-25.1a1.4 1.4 0 0 1 .4-1.9 1.4 1.4 0 0 1 1.9.4c2.6 3.9 1.4 19.6.9 25.4 3.1.1 9.7.53 12.5 2.6 1.6 1.2 3.3 6.2 2.9 50.36a403.95 403.95 0 0 0 0 3.37c0 1.5-1.8 2.07-2.5 2.3-6.3 1.93-39.2 3.25-70.4 3.25"/>
  <path fill="#201d1c" d="M122.05 220.92c-.07 0-.14 0-.22-.02l-18.65-2.96a1.4 1.4 0 0 1-1.14-1.65c.2-1 4.7-23 12.1-32 7.68-9.4 18-8.4 18.43-8.3.76 0 1.3.7 1.23 1.5-.08.7-.73 1.3-1.53 1.2-.37-.1-9.28-.9-15.97 7.3-5.94 7.2-10.1 24.3-11.23 29.3l17.2 2.7a1.4 1.4 0 0 1-.22 2.7M145 332.9c-2.85 0-5.83-.5-7.56-2.2-3.25-3.25-11.56-54.33-14.03-69.9a1.4 1.4 0 0 1 1.2-1.6 1.38 1.38 0 0 1 1.6 1.16c4 24.9 11.1 65.5 13.3 68.4 2.2 2.2 9.4 1.22 11.8.6.9-1.8 3.3-10.1 5.5-17.4 4.4-15 7.4-25 9-26.83 3.5-4.1 47.2-2.17 49.7-1.33 1.7.58 3.2 4.26 9.3 23.2 2.7 8.36 6.4 19.76 7.8 21.45 2.6.7 8.6.2 10.2-.68 1.5-3.9 7.3-42.3 10.6-66 .1-.75.8-1.27 1.6-1.2.8.13 1.3.83 1.2 1.6-9.2 66.1-10.9 67.37-11.5 67.8-2.2 1.66-10 2.1-13.1 1.1-1.7-.57-3.2-4.25-9.3-23.2-2.7-8.34-6.4-19.7-7.7-21.43-4.7-1.07-43.4-1.8-46.6.6-1.2 1.47-5.5 16.08-8.3 25.75-5.4 18.7-5.6 18.8-6.8 19.2-.7.2-4 1-7.5 1M120 277.9c-.3 0-.6-.1-.9-.3a1.4 1.4 0 0 1-.2-2c1.83-2.2 1.4-7-.95-10.1-2.9-3.9 1.2-20.6 2.56-25.6a1.4 1.4 0 1 1 2.7.7c-2.5 9.7-4.4 21.3-3 23.2 3.2 4.2 3.6 10.3.9 13.5-.2.4-.6.5-1 .5"/>
  <path fill="#201d1c" d="M101.1 269.35c-.23 0-.48-.06-.7-.2a1.4 1.4 0 0 1-.48-1.9 30.1 30.1 0 0 1 2.06-3c-.8-13.9 2.5-44.68 2.66-46 .08-.77.78-1.3 1.53-1.24a1.4 1.4 0 0 1 1.23 1.6c-.04.3-3.5 32.7-2.6 46.1 0 .4-.1.7-.34 1 0 0-1.1 1.3-2.16 3.1-.26.5-.72.7-1.2.7M255.48 221a1.4 1.4 0 0 1-.22-2.77l17.2-2.7c-1.13-5.04-5.3-22.1-11.23-29.34-6.78-8.3-17.18-8.4-17.3-8.4a1.4 1.4 0 0 1 0-2.8c.54 0 11.86.1 19.45 9.3 7.4 9 11.92 31 12.1 31.9a1.4 1.4 0 0 1-1.13 1.6l-18.65 2.9a1.46 1.46 0 0 1-.22 0"/>
  <path fill="#201d1c" d="M267.1 289.83c-1.15 0-2.15-.5-2.85-1.48-1.64-2.26-1.4-6.76.5-9.83 1.34-2.13 1-4.43.57-4.83l-.3.2c-.74.6-1.38 1.4-2 2.1-1.14 1.4-2.2 2.7-3.77 2.7-.93 0-1.8-.5-2.56-1.4-2.7-3.3-2.4-9.3.8-13.6 1.4-1.9-.9-14.8-3.9-25.7a1.4 1.4 0 1 1 2.7-.8c1.5 5.6 6.3 24.1 3.4 28-2.3 3.1-2.8 7.9-1 10.1l.4.4c.3-.1 1-1.1 1.6-1.7.6-.9 1.4-1.8 2.3-2.6 1.5-1.3 3-1 3.9-.3 1.8 1.5 1.8 5.5 0 8.4-1.4 2.2-1.5 5.5-.7 6.7.2.3.4.4.9.3 3-.8 9.5-8.1 9.8-12 .3-3.3-3-7.9-4.2-9.5a1.4 1.4 0 0 1-.4-1c.9-13.4-3.1-45.7-3.1-46.1a1.4 1.4 0 0 1 1.2-1.6c.7-.1 1.4.4 1.5 1.2.2 1.3 3.9 32.1 3.1 46 1.2 1.5 4.9 6.7 4.5 11.1-.5 5.1-7.9 13.3-12 14.4-.4 0-.7.1-1 .1m-134.8 59c-3.3 0-6.3-.4-8.3-1.3-2-1-2.7-2.3-2.9-3.3-1.6-7.6 16.8-14.6 17-14.6a1.4 1.4 0 0 1 .8 2.6c-2.8.9-16 7.1-15.2 11.4.1.5.5.9 1.3 1.3 5.3 2.4 20.5 0 23.6-1.7 2.2-1.1 2.4-8.2 1.9-12.6a1.4 1.4 0 0 1 1.2-1.6c.8-.1 1.5.4 1.6 1.2.3 2.1 1.23 12.9-3.3 15.3-2.5 1.3-10.8 3-17.88 3m118.74 0c-7 0-15.4-1.7-17.9-3-4.5-2.5-3.5-13.2-3.3-15.4.1-.78.8-1.3 1.5-1.2.8.1 1.3.73 1.2 1.5-.5 4.5-.2 11.4 1.9 12.55 3.2 1.7 18.4 4.1 23.7 1.66.8-.3 1.2-.8 1.3-1.2.87-4.3-12.4-11.4-15.2-12.4a1.4 1.4 0 0 1-.8-1.74 1.37 1.37 0 0 1 1.7-.87c.2.1 18.5 8 17 15.5-.2 1-.85 2.3-2.87 3.3-2 .9-5 1.3-8.3 1.3M151 127.4c0 6.2-3.3 11.2-7.3 11.2s-7.28-5-7.28-11.2c0-6.2 3.25-11.22 7.3-11.22 4 0 7.25 5.08 7.25 11.27"/>
  <path fill="#fff" d="M145.55 122.48a3.5 3.5 0 1 1-6.97 0 3.5 3.5 0 0 1 6.97 0"/>
  <path fill="#201d1c" d="M240.77 127.78c0 6.2-3.26 11.22-7.28 11.22-4.1 0-7.3-5.02-7.3-11.22 0-6.2 3.2-11.22 7.3-11.22 4 0 7.2 5.03 7.2 11.22"/>
  <path fill="#fff" d="M235 122.48a3.5 3.5 0 1 1-6.97 0 3.5 3.5 0 0 1 6.98 0"/>
  <path fill="#201d1c" d="M189.54 170.98c-12.48 0-20.75-4.1-21.27-4.36a1.4 1.4 0 0 1-.6-1.86 1.4 1.4 0 0 1 1.86-.62c.18.1 18.26 9 41-.05a1.4 1.4 0 0 1 1.8.7 1.4 1.4 0 0 1-.77 1.8c-8.12 3.2-15.62 4.3-22.02 4.3M111.2 298.8c-.9 0-1.8-.2-2.66-.6-.7-.35-1.12-.85-1.65-1.47l-.6-.67a1.4 1.4 0 0 1 .1-1.96 1.38 1.38 0 0 1 1.9.1l.6.74c.4.48.6.7.7.78 2.7 1.37 7.6-2.07 9.8-5.03.5-.7.8-3.4-.4-8.2-1.5-6.2-4.3-11.5-6.8-12.9-3.4-1.8-9.8-1.3-13.5 1-1 .6-2.2 1.7-2.1 3 0 1.1.6 3 1.7 5.3.3.7 0 1.5-.7 1.8-.7.3-1.6 0-1.9-.7-1.2-2.7-1.9-4.8-1.9-6.3-.1-2.1 1.1-4.1 3.4-5.6 4.4-2.8 12-3.4 16.2-1.2 4 2.1 6.9 9.2 8.2 14.7.5 2.3 1.6 8-.2 10.4-2.2 3-6.6 6.5-10.6 6.5"/>
  <path fill="#201d1c" d="M48.6 314.78l-3.63 25.06 22.9-.55 43.48-51.3c-.3-2.1-1.75-9.2-7.4-10.8L48.6 314.7zm-5.24 27.88a1.38 1.38 0 0 1-1.38-1.6l3.95-27.28c.05-.4.27-.74.6-.96l56.4-38.2a1.4 1.4 0 0 1 1.07-.2c9.1 2 10.14 13.48 10.18 13.97.04.3-.08.7-.32 1L69.6 341.5c-.27.3-.64.48-1.04.5l-25.17.6h-.1"/>
  <path fill="#201d1c" d="M44.27 341.44a1.4 1.4 0 0 1-.93-2.42c17.26-15.43 62.04-55.55 64.66-58.26.17-.25.42-.45.72-.55.62-.2 1.32.1 1.65.7.23.4.4.7-.78 2v.1h-.1c-2.4 2.7-9.9 9.4-31.8 29.1l-32.6 29.2a1.4 1.4 0 0 1-1 .4M213.4 64.2a1.4 1.4 0 0 1-1.3-1.2l-7.75-45.5c-.02-.32.08-6.36-3.88-10.32-2.48-2.46-6.07-3.62-10.64-3.52-4.5.12-8 1.5-10.4 4.1-4.02 4.35-3.73 10.74-3.72 10.8v.42l-10.9 43.67a1.4 1.4 0 0 1-1.7 1 1.4 1.4 0 0 1-1-1.67L173 18.5c-.03-1.3.04-7.86 4.43-12.6 2.9-3.2 7.1-4.9 12.4-5.08 5.4-.12 9.66 1.32 12.7 4.35 4.8 4.83 4.65 11.8 4.65 12.1l7.7 45.2a1.4 1.4 0 0 1-1.36 1.64"/>
  <path fill="#201d1c" d="M188.88 40.35c-4.86 0-10.4 1.88-11.33 7.16-.15.8.08 1.6.68 2.3 1.87 2.3 6.86 3.8 12.12 3.8 4.77 0 10.48-1.4 10.83-5.5.12-1.4-.36-2.7-1.42-3.8-2.14-2.3-6.4-3.8-10.87-3.8zm1.47 15.98c-5.1 0-11.48-1.48-14.25-4.8-1.13-1.34-1.57-2.9-1.3-4.5 1.25-6.98 8.1-9.46 14.08-9.46 5.3 0 10.24 1.82 12.93 4.74 1.6 1.8 2.4 3.9 2.2 6-.4 5-5.6 8.1-13.6 8.1m-2.5-31c-2.9 0-6.2.9-6.6 3.2.3 1 5.5 3.1 10.7 3.1 2.4 0 5-.5 5.2-1.9.1-.5-.1-.9-.5-1.4-1.4-1.6-5.1-2.8-8.7-2.8zm4.1 9c-4.5 0-10.7-1.5-12.7-3.9-.8-.9-.8-1.8-.7-2.3.6-3.4 4.2-5.5 9.4-5.5 3.8 0 8.6 1.2 10.9 3.8 1 1.1 1.4 2.4 1.2 3.7-.2 1.7-1.5 4.4-7.9 4.4m-.6 174.1c-21.1 0-41.6-3.6-42.7-5.6-.7-1.4-.5-9.8-.1-16.7 0-.7.7-1.4 1.4-1.3a1.4 1.4 0 0 1 1.3 1.5c-.3 6.2-.4 13-.2 15 5.1 1.7 49.6 9.2 73 0 .4-2.3 1.7-9.9.9-15.5a1.4 1.4 0 0 1 1.2-1.6 1.4 1.4 0 0 1 1.6 1.2c1.1 7.1-.9 16.8-1 17.2a1.4 1.4 0 0 1-.9 1c-8.9 3.7-21.7 5-34.4 5m3.8 48.1c-38.7 0-71.3-3.9-71.8-4a1.4 1.4 0 0 1-1.2-1.5c.1-.8.8-1.3 1.5-1.2.8.1 73.8 8.9 131 0 .8-.1 1.5.4 1.6 1.2a1.4 1.4 0 0 1-1.2 1.6c-19.3 3-40.3 4-59.8 4"/>
</svg>
