<?xml version="1.0" encoding="UTF-8" standalone="no"?>
<!-- Created with Inkscape (http://www.inkscape.org/) -->

<svg
   xmlns:dc="http://purl.org/dc/elements/1.1/"
   xmlns:cc="http://creativecommons.org/ns#"
   xmlns:rdf="http://www.w3.org/1999/02/22-rdf-syntax-ns#"
   xmlns:svg="http://www.w3.org/2000/svg"
   xmlns="http://www.w3.org/2000/svg"
   xmlns:xlink="http://www.w3.org/1999/xlink"
   xmlns:sodipodi="http://sodipodi.sourceforge.net/DTD/sodipodi-0.dtd"
   xmlns:inkscape="http://www.inkscape.org/namespaces/inkscape"
   width="42.897778mm"
   height="42.897778mm"
   viewBox="0 0 152 152"
   id="svg6490"
   version="1.1"
   inkscape:version="0.91 r13725"
   sodipodi:docname="potion.svg">
  <defs
     id="defs6492">
    <clipPath
       clipPathUnits="userSpaceOnUse"
       id="clipPath1222">
      <path
         d="m 558.888,217.659 34.974,0 0,-108.948 -34.974,0 0,108.948 z"
         id="path1224"
         inkscape:connector-curvature="0" />
    </clipPath>
    <clipPath
       clipPathUnits="userSpaceOnUse"
       id="clipPath1202">
      <path
         d="m 607.202,132.247 4.602,0 0,-4.6 -4.602,0 0,4.6 z"
         id="path1204"
         inkscape:connector-curvature="0" />
    </clipPath>
    <clipPath
       clipPathUnits="userSpaceOnUse"
       id="clipPath1186">
      <path
         d="m 593.172,144.254 7.254,0 0,-7.253 -7.254,0 0,7.253 z"
         id="path1188"
         inkscape:connector-curvature="0" />
    </clipPath>
    <clipPath
       clipPathUnits="userSpaceOnUse"
       id="clipPath1170">
      <path
         d="m 577.84,137.138 3.973,0 0,-3.973 -3.973,0 0,3.973 z"
         id="path1172"
         inkscape:connector-curvature="0" />
    </clipPath>
    <clipPath
       clipPathUnits="userSpaceOnUse"
       id="clipPath1154">
      <path
         d="m 607.771,152.101 3.974,0 0,-3.972 -3.974,0 0,3.972 z"
         id="path1156"
         inkscape:connector-curvature="0" />
    </clipPath>
    <clipPath
       clipPathUnits="userSpaceOnUse"
       id="clipPath1138">
      <path
         d="m 588.129,129.653 4.244,0 0,-4.244 -4.244,0 0,4.244 z"
         id="path1140"
         inkscape:connector-curvature="0" />
    </clipPath>
    <clipPath
       clipPathUnits="userSpaceOnUse"
       id="clipPath1122">
      <path
         d="m 579.711,150.231 4.244,0 0,-4.243 -4.244,0 0,4.243 z"
         id="path1124"
         inkscape:connector-curvature="0" />
    </clipPath>
    <clipPath
       clipPathUnits="userSpaceOnUse"
       id="clipPath1056">
      <path
         d="m 554.888,221.659 98.4,0 0,-120.96 -98.4,0 0,120.96 z"
         id="path1058"
         inkscape:connector-curvature="0" />
    </clipPath>
    <mask
       maskUnits="userSpaceOnUse"
       x="0"
       y="0"
       width="1"
       height="1"
       id="mask1064">
      <g
         id="g1066">
        <g
           clip-path="url(#clipPath1060)"
           id="g1068">
          <g
             id="g1070">
            <g
               transform="matrix(98.400004,0,0,120.96,554.8877,100.69917)"
               id="g1072">
              <image
                 id="image1074"
                 transform="matrix(1,0,0,-1,0,1)"
                 preserveAspectRatio="none"
                 height="1"
                 width="1"
                 xlink:href="/home/roehrig/73582-OE7J85-576_img24.png" />
            </g>
          </g>
        </g>
      </g>
    </mask>
    <clipPath
       clipPathUnits="userSpaceOnUse"
       id="clipPath1060">
      <path
         d="m 554.888,221.659 98.4,0 0,-120.96 -98.4,0 0,120.96 z"
         id="path1062"
         inkscape:connector-curvature="0" />
    </clipPath>
    <mask
       maskUnits="userSpaceOnUse"
       x="0"
       y="0"
       width="1"
       height="1"
       id="mask1076">
      <image
         id="image1078"
         preserveAspectRatio="none"
         height="1"
         width="1"
         xlink:href="/home/roehrig/73582-OE7J85-576_img25.png" />
    </mask>
  </defs>
  <sodipodi:namedview
     id="base"
     pagecolor="#ffffff"
     bordercolor="#666666"
     borderopacity="1.0"
     inkscape:pageopacity="0.0"
     inkscape:pageshadow="2"
     inkscape:zoom="1.979899"
     inkscape:cx="125.45158"
     inkscape:cy="54.932766"
     inkscape:document-units="px"
     inkscape:current-layer="layer1"
     showgrid="false"
     fit-margin-top="0"
     fit-margin-left="0"
     fit-margin-right="0"
     fit-margin-bottom="0"
     inkscape:window-width="1920"
     inkscape:window-height="1017"
     inkscape:window-x="0"
     inkscape:window-y="30"
     inkscape:window-maximized="1" />
  <metadata
     id="metadata6495">
    <rdf:RDF>
      <cc:Work
         rdf:about="">
        <dc:format>image/svg+xml</dc:format>
        <dc:type
           rdf:resource="http://purl.org/dc/dcmitype/StillImage" />
        <dc:title></dc:title>
      </cc:Work>
    </rdf:RDF>
  </metadata>
  <g
     inkscape:label="Ebene 1"
     inkscape:groupmode="layer"
     id="layer1"
     transform="translate(-254.28572,-338.44785)">
    <g
       id="g7228"
       transform="translate(104.85715,-489.34289)">
      <g
         id="g1052"
         transform="matrix(1.25,0,0,-1.25,-523.68124,1105.2646)">
        <g
           id="g1054" />
        <g
           id="g1080">
          <g
             style="opacity:0.19999701"
             id="g1082"
             clip-path="url(#clipPath1056)">
            <g
               id="g1084">
              <g
                 id="g1086" />
              <g
                 id="g1088"
                 mask="url(#mask1064)">
                <g
                   id="g1090"
                   transform="matrix(98.400004,0,0,120.96,554.8877,100.69917)">
                  <image
                     xlink:href="/home/roehrig/73582-OE7J85-576_img26.png"
                     width="1"
                     height="1"
                     preserveAspectRatio="none"
                     transform="matrix(1,0,0,-1,0,1)"
                     mask="url(#mask1076)"
                     id="image1092" />
                </g>
              </g>
            </g>
          </g>
        </g>
      </g>
      <g
         transform="matrix(1.25,0,0,-1.25,266.46888,885.91776)"
         id="g1094">
        <path
           inkscape:connector-curvature="0"
           id="path1096"
           style="fill:#ffb726;fill-opacity:1;fill-rule:nonzero;stroke:none"
           d="m 0,0 -3.796,6.954 -7.727,1.741 6.953,3.8 1.745,7.727 L 0.97,13.269 8.698,11.525 1.745,7.729 0,0 Z" />
      </g>
      <g
         transform="matrix(1.25,0,0,-1.25,275.73651,857.43138)"
         id="g1098">
        <path
           inkscape:connector-curvature="0"
           id="path1100"
           style="fill:#ffb726;fill-opacity:1;fill-rule:nonzero;stroke:none"
           d="M 0,0 -2.383,4.364 -7.23,5.458 -2.868,7.843 -1.773,12.692 0.608,8.328 5.461,7.233 1.095,4.851 0,0 Z" />
      </g>
      <g
         transform="matrix(1.25,0,0,-1.25,248.71988,865.84201)"
         id="g1102">
        <path
           inkscape:connector-curvature="0"
           id="path1104"
           style="fill:#ffb726;fill-opacity:1;fill-rule:nonzero;stroke:none"
           d="M 0,0 -1.458,2.671 -4.427,3.343 -1.756,4.802 -1.085,7.771 0.371,5.098 3.342,4.431 0.671,2.97 0,0 Z" />
      </g>
      <g
         transform="matrix(1.25,0,0,-1.25,255.53263,849.011)"
         id="g1106">
        <path
           inkscape:connector-curvature="0"
           id="path1108"
           style="fill:#ffb726;fill-opacity:1;fill-rule:nonzero;stroke:none"
           d="M 0,0 -1.191,2.18 -3.617,2.728 -1.433,3.919 -0.889,6.345 0.306,4.163 2.729,3.614 0.549,2.425 0,0 Z" />
      </g>
      <g
         transform="matrix(1.25,0,0,-1.25,234.85388,884.74463)"
         id="g1110">
        <path
           inkscape:connector-curvature="0"
           id="path1112"
           style="fill:#28d7cb;fill-opacity:1;fill-rule:nonzero;stroke:none"
           d="m 0,0 c -5.39,7.771 -2.98,16.625 -1.018,21.612 2.159,0.072 4.19,1.832 4.19,4.007 l 0,0.378 c 0,2.221 -2.401,4.587 -4.62,4.587 l -24.698,0 c -2.221,0 -3.682,-2.366 -3.682,-4.587 l 0,-0.378 c 0,-2.221 1.461,-4.035 3.682,-4.035 l 0.806,0 c 2.015,-6 4.154,-14.262 -1.742,-22.158 -12.285,-5.459 -20.858,-17.753 -20.858,-32.064 0,-19.368 15.705,-35.072 35.079,-35.072 19.371,0 35.076,15.703 35.076,35.076 C 22.215,-17.803 13.008,-5.133 0,0" />
      </g>
      <g
         transform="matrix(1.25,0,0,-1.25,190.08826,904.77388)"
         id="g1114">
        <path
           inkscape:connector-curvature="0"
           id="path1116"
           style="fill:#dd3e64;fill-opacity:1;fill-rule:nonzero;stroke:none"
           d="m 0,0 c -3.469,-4.72 -5.525,-10.545 -5.525,-16.853 0,-15.724 12.75,-28.476 28.476,-28.476 15.725,0 28.473,12.752 28.473,28.476 0,6.308 -2.054,12.133 -5.526,16.853 L 0,0 Z" />
      </g>
      <g
         id="g1118"
         transform="matrix(1.25,0,0,-1.25,-523.68124,1105.2646)">
        <g
           id="g1120" />
        <g
           id="g1126">
          <g
             style="opacity:0.30000299"
             id="g1128"
             clip-path="url(#clipPath1122)">
            <g
               id="g1130"
               transform="translate(583.9551,148.1094)">
              <path
                 inkscape:connector-curvature="0"
                 id="path1132"
                 style="fill:#fafcfb;fill-opacity:1;fill-rule:nonzero;stroke:none"
                 d="m 0,0 c 0,-1.173 -0.95,-2.121 -2.123,-2.121 -1.172,0 -2.121,0.948 -2.121,2.121 0,1.171 0.949,2.122 2.121,2.122 C -0.95,2.122 0,1.171 0,0" />
            </g>
          </g>
        </g>
      </g>
      <g
         id="g1134"
         transform="matrix(1.25,0,0,-1.25,-523.68124,1105.2646)">
        <g
           id="g1136" />
        <g
           id="g1142">
          <g
             style="opacity:0.30000299"
             id="g1144"
             clip-path="url(#clipPath1138)">
            <g
               id="g1146"
               transform="translate(592.373,127.5303)">
              <path
                 inkscape:connector-curvature="0"
                 id="path1148"
                 style="fill:#fafcfb;fill-opacity:1;fill-rule:nonzero;stroke:none"
                 d="m 0,0 c 0,-1.169 -0.95,-2.121 -2.121,-2.121 -1.173,0 -2.123,0.952 -2.123,2.121 0,1.172 0.95,2.123 2.123,2.123 C -0.95,2.123 0,1.172 0,0" />
            </g>
          </g>
        </g>
      </g>
      <g
         id="g1150"
         transform="matrix(1.25,0,0,-1.25,-523.68124,1105.2646)">
        <g
           id="g1152" />
        <g
           id="g1158">
          <g
             style="opacity:0.30000299"
             id="g1160"
             clip-path="url(#clipPath1154)">
            <g
               id="g1162"
               transform="translate(611.7451,150.1172)">
              <path
                 inkscape:connector-curvature="0"
                 id="path1164"
                 style="fill:#fafcfb;fill-opacity:1;fill-rule:nonzero;stroke:none"
                 d="m 0,0 c 0,-1.1 -0.89,-1.988 -1.984,-1.988 -1.1,0 -1.99,0.888 -1.99,1.988 0,1.097 0.89,1.983 1.99,1.983 C -0.89,1.983 0,1.097 0,0" />
            </g>
          </g>
        </g>
      </g>
      <g
         id="g1166"
         transform="matrix(1.25,0,0,-1.25,-523.68124,1105.2646)">
        <g
           id="g1168" />
        <g
           id="g1174">
          <g
             style="opacity:0.30000299"
             id="g1176"
             clip-path="url(#clipPath1170)">
            <g
               id="g1178"
               transform="translate(581.8125,135.1484)">
              <path
                 inkscape:connector-curvature="0"
                 id="path1180"
                 style="fill:#fafcfb;fill-opacity:1;fill-rule:nonzero;stroke:none"
                 d="m 0,0 c 0,-1.097 -0.889,-1.983 -1.984,-1.983 -1.098,0 -1.989,0.886 -1.989,1.983 0,1.098 0.891,1.989 1.989,1.989 C -0.889,1.989 0,1.098 0,0" />
            </g>
          </g>
        </g>
      </g>
      <g
         id="g1182"
         transform="matrix(1.25,0,0,-1.25,-523.68124,1105.2646)">
        <g
           id="g1184" />
        <g
           id="g1190">
          <g
             style="opacity:0.30000299"
             id="g1192"
             clip-path="url(#clipPath1186)">
            <g
               id="g1194"
               transform="translate(600.4258,140.627)">
              <path
                 inkscape:connector-curvature="0"
                 id="path1196"
                 style="fill:#fafcfb;fill-opacity:1;fill-rule:nonzero;stroke:none"
                 d="m 0,0 c 0,-2.004 -1.625,-3.626 -3.626,-3.626 -2.005,0 -3.628,1.622 -3.628,3.626 0,2.004 1.623,3.627 3.628,3.627 C -1.625,3.627 0,2.004 0,0" />
            </g>
          </g>
        </g>
      </g>
      <g
         id="g1198"
         transform="matrix(1.25,0,0,-1.25,-523.68124,1105.2646)">
        <g
           id="g1200" />
        <g
           id="g1206">
          <g
             style="opacity:0.30000299"
             id="g1208"
             clip-path="url(#clipPath1202)">
            <g
               id="g1210"
               transform="translate(611.8037,129.9473)">
              <path
                 inkscape:connector-curvature="0"
                 id="path1212"
                 style="fill:#fafcfb;fill-opacity:1;fill-rule:nonzero;stroke:none"
                 d="m 0,0 c 0,-1.27 -1.03,-2.3 -2.301,-2.3 -1.271,0 -2.301,1.03 -2.301,2.3 0,1.27 1.03,2.3 2.301,2.3 C -1.03,2.3 0,1.27 0,0" />
            </g>
          </g>
        </g>
      </g>
      <g
         transform="matrix(1.25,0,0,-1.25,230.76939,847.22263)"
         id="g1214">
        <path
           inkscape:connector-curvature="0"
           id="path1216"
           style="fill:#ffb726;fill-opacity:1;fill-rule:nonzero;stroke:none"
           d="m 0,0 0,3.781 c 0,4.092 -3.32,7.41 -7.41,7.41 l -5.296,0 c -4.093,0 -7.411,-3.318 -7.411,-7.41 L -20.117,0 0,0 Z" />
      </g>
      <g
         id="g1218"
         transform="matrix(1.25,0,0,-1.25,-523.68124,1105.2646)">
        <g
           id="g1220" />
        <g
           id="g1226">
          <g
             style="opacity:0.69999701"
             id="g1228"
             clip-path="url(#clipPath1222)">
            <g
               id="g1230"
               transform="translate(593.8623,217.6592)">
              <path
                 inkscape:connector-curvature="0"
                 id="path1232"
                 style="fill:#fafcfb;fill-opacity:1;fill-rule:nonzero;stroke:none"
                 d="m 0,0 -3.008,0 c -4.093,0 -7.645,-3.353 -7.645,-7.444 l 0,-3.782 -2.528,0 c -2.22,0 -4.02,-1.799 -4.02,-4.02 l 0,-0.378 c 0,-2.221 1.8,-4.022 4.02,-4.022 l 0.807,0 c 2.015,-5.111 4.154,-14.267 -1.742,-22.165 -12.285,-5.458 -20.859,-17.758 -20.859,-32.066 0,-19.337 15.649,-35.016 34.975,-35.071 L 0,0 Z" />
            </g>
          </g>
        </g>
      </g>
    </g>
  </g>
</svg>
