<svg xmlns="http://www.w3.org/2000/svg" viewBox="0 0 152 152">
  <defs>
    <clipPath id="g">
      <path d="M558.9 217.66h34.96V108.7H558.9v108.96z"/>
    </clipPath>
    <clipPath id="f">
      <path d="M607.2 132.25h4.6v-4.6h-4.6v4.6z"/>
    </clipPath>
    <clipPath id="e">
      <path d="M593.17 144.25h7.26V137h-7.26v7.25z"/>
    </clipPath>
    <clipPath id="d">
      <path d="M577.84 137.14h3.97v-3.97h-3.9v3.97z"/>
    </clipPath>
    <clipPath id="c">
      <path d="M607.77 152.1h3.97v-3.97h-3.97v3.97z"/>
    </clipPath>
    <clipPath id="b">
      <path d="M588.13 129.65h4.24v-4.24h-4.24v4.3z"/>
    </clipPath>
    <clipPath id="a">
      <path d="M579.7 150.23h4.25V146h-4.24v4.23z"/>
    </clipPath>
  </defs>
  <path fill="#ffb726" d="M117.04 58.13l-4.74-8.7-9.66-2.17 8.7-4.75 2.17-9.6 4.8 8.7 9.7 2.2-8.7 4.76-2.2 9.66zm9.26-28.5l-2.97-5.44-6.06-1.4 5.45-3 1.37-6.1 2.9 5.44 6.04 1.37-5.45 2.98-1.37 6.06zm-27 8.42l-1.83-3.34-3.7-.8 3.33-1.8.84-3.7 1.82 3.37 3.7.83-3.33 1.83-.84 3.7zm6.8-16.83l-1.48-2.72-3.04-.7 2.73-1.48.7-3.03 1.5 2.7 3.1.7-2.72 1.5-.7 3z"/>
  <path fill="#28d7cb" d="M85.43 56.95c-6.74-9.7-3.73-20.78-1.28-27 2.7-.1 5.24-2.3 5.24-5.02v-.47c0-2.78-3-5.74-5.8-5.74H52.7c-2.77 0-4.6 2.96-4.6 5.74v.47c0 2.78 1.83 5.04 4.6 5.04h1c2.53 7.5 5.2 17.83-2.17 27.7-15.3 6.83-26.03 22.2-26.03 40.08 0 24.2 19.63 43.84 43.85 43.84 24.2 0 43.84-19.7 43.84-43.9 0-18.58-11.5-34.4-27.8-40.8"/>
  <path fill="#dd3e64" d="M40.66 76.98c-4.34 5.9-6.9 13.18-6.9 21.07 0 19.65 15.93 35.6 35.6 35.6 19.64 0 35.58-15.95 35.58-35.6 0-7.9-2.57-15.17-6.9-21.07h-57.4z"/>
  <g clip-path="url(#a)" opacity=".3" transform="translate(-254.28572,-338.44785) translate(104.85715,-489.34289) matrix(1.25,0,0,-1.25,-523.68124,1105.2646)">
    <path fill="#fafcfb" d="M583.96 148.1c0-1.16-.95-2.1-2.13-2.1-1.17 0-2.12.94-2.12 2.1 0 1.18 1 2.13 2.2 2.13 1.2 0 2.15-.95 2.15-2.12"/>
  </g>
  <g clip-path="url(#b)" opacity=".3" transform="translate(-254.28572,-338.44785) translate(104.85715,-489.34289) matrix(1.25,0,0,-1.25,-523.68124,1105.2646)">
    <path fill="#fafcfb" d="M592.37 127.53c0-1.17-.95-2.12-2.12-2.12-1.17 0-2.12 1-2.12 2.2s.95 2.1 2.12 2.1c1.17 0 2.12-.92 2.12-2.1"/>
  </g>
  <g clip-path="url(#c)" opacity=".3" transform="translate(-254.28572,-338.44785) translate(104.85715,-489.34289) matrix(1.25,0,0,-1.25,-523.68124,1105.2646)">
    <path fill="#fafcfb" d="M611.75 150.12c0-1.1-.9-2-2-2s-1.98.9-1.98 2 .9 1.98 2 1.98 1.98-.9 1.98-1.98"/>
  </g>
  <g clip-path="url(#d)" opacity=".3" transform="translate(-254.28572,-338.44785) translate(104.85715,-489.34289) matrix(1.25,0,0,-1.25,-523.68124,1105.2646)">
    <path fill="#fafcfb" d="M581.8 135.15c0-1.1-.88-1.98-1.97-1.98-1.1 0-2 .88-2 1.98s.9 2 2 2 1.98-.9 1.98-2"/>
  </g>
  <g clip-path="url(#e)" opacity=".3" transform="translate(-254.28572,-338.44785) translate(104.85715,-489.34289) matrix(1.25,0,0,-1.25,-523.68124,1105.2646)">
    <path fill="#fafcfb" d="M600.43 140.63c0-2-1.63-3.63-3.63-3.63s-3.63 1.62-3.63 3.63c0 2 1.62 3.62 3.63 3.62 2 0 3.63-1.62 3.63-3.62"/>
  </g>
  <g clip-path="url(#f)" opacity=".3" transform="translate(-254.28572,-338.44785) translate(104.85715,-489.34289) matrix(1.25,0,0,-1.25,-523.68124,1105.2646)">
    <path fill="#fafcfb" d="M611.8 129.95c0-1.27-1.03-2.3-2.3-2.3-1.27 0-2.3 1.03-2.3 2.3 0 1.27 1.03 2.3 2.3 2.3 1.27 0 2.3-1.03 2.3-2.3"/>
  </g>
  <path fill="#ffb726" d="M81.34 19.43V14.7c0-5.1-4.15-9.26-9.26-9.26h-6.62c-5.12 0-9.27 4.15-9.27 9.27v4.8h25.1z"/>
  <g clip-path="url(#g)" opacity=".7" transform="translate(-254.28572,-338.44785) translate(104.85715,-489.34289) matrix(1.25,0,0,-1.25,-523.68124,1105.2646)">
    <path fill="#fafcfb" d="M593.86 217.66h-3c-4.1 0-7.65-3.35-7.65-7.44v-3.8h-2.5c-2.2 0-4-1.8-4-4v-.38c0-2.23 1.8-4.03 4-4.03h.8c2-5.1 4.2-14.2-1.7-22.1-12.3-5.42-20.83-17.72-20.83-32.03 0-19.33 15.65-35 34.97-35.07v108.9z"/>
  </g>
</svg>
