<svg xmlns="http://www.w3.org/2000/svg" viewBox="0 0 228.6 228.6">
  <path fill="#6f5448" d="M37.1 204.25c-5.02 5.02-13.17 5.02-18.2 0-5-5.02-5-13.17 0-18.2l35.56-35.54c5.02-5 13.17-5 18.2 0 5 5.1 5 13.2 0 18.2L37.1 204.3"/>
  <path fill="#5cc8b9" d="M218.16 5l-77.73 20.54L62.16 133.4l13.8 13.8 13.83 13.84 107.8-78.3L218.1 5"/>
  <path fill="#503024" d="M99.1 180.27c-4.1 4.1-10.77 4.1-14.88 0l-40.5-40.5c-4.12-4.12-4.12-10.78 0-14.9 4.1-4.1 10.76-4.1 14.87 0l40.5 40.52c4.1 4.1 4.1 10.7 0 14.8"/>
  <path fill="#f9ac26" d="M38.76 212.37c-7.72 7.72-20.24 7.72-27.97 0-7.8-7.73-7.8-20.25 0-27.97 7.7-7.73 20.2-7.73 27.9 0 7.7 7.72 7.7 20.24 0 27.97"/>
  <path fill="#fbcb64" d="M35.4 209c-5.86 5.88-15.38 5.88-21.25 0-5.88-5.86-5.88-15.38 0-21.25 5.87-5.87 15.4-5.87 21.26 0 5.9 5.87 5.9 15.4 0 21.26"/>
  <path fill="#f9ac26" d="M56.9 137.9c-2.68 2.68-7 2.68-9.68 0-2.67-2.67-2.67-7 0-9.67s7-2.67 9.68 0c2.67 2.67 2.67 7 0 9.67"/>
  <path fill="#fbcb64" d="M55.74 136.75c-2.03 2.03-5.33 2.03-7.36 0-2.03-2.04-2.03-5.33 0-7.36 2.03-2.1 5.33-2.1 7.36 0 2.03 2 2.03 5.3 0 7.3"/>
  <path fill="#f9ac26" d="M96.58 177.6c-2.67 2.66-7 2.66-9.67 0-2.6-2.68-2.6-7 0-9.7 2.7-2.66 7-2.66 9.7 0 2.7 2.7 2.7 7.02 0 9.7"/>
  <path fill="#fbcb64" d="M95.42 176.43c-2.03 2.03-5.32 2.03-7.35 0-2.03-2.03-2.03-5.32 0-7.36 2.03-2.03 5.32-2.03 7.35 0 2.03 2.04 2.03 5.33 0 7.36"/>
  <path fill="#76d1cb" d="M86.7 139.96c-.9 0-1.8-.34-2.48-1.03-.2-.2-.35-.4-.5-.62L194.4 27.7c.2.14.42.3.6.5 1.38 1.37 1.38 3.6 0 4.96L89.2 138.94c-.68.7-1.58 1.03-2.48 1.03"/>
  <path fill="#927c70" d="M38.2 183.85c-3.4-3.13-7.6-4.86-11.9-5.2l28.16-28.14 8.54 8.6-24.8 24.8"/>
  <path fill="#6dcec5" d="M77.88 144.17l-13.64-13.64 76.2-105 76.2-20.13-22.25 22.26c-.6-.36-1.3-.54-1.9-.54-.9 0-1.8.34-2.5 1.03L84.2 133.97c-1.2 1.18-1.34 3-.5 4.34l-5.84 5.9"/>
  <path fill="#785947" d="M63 159.05l-8.54-8.54-10.76-10.7c-2.02-2-3.05-4.7-3.05-7.4s1.03-5.4 3.08-7.4c2.07-2 4.76-3.1 7.45-3.1 2.7 0 5.4 1.1 7.44 3.1l5.65 5.7 13.63 13.6L63 159.1m-10.94-32.8c-1.75 0-3.5.64-4.84 2-2.67 2.65-2.67 7 0 9.66 1.34 1.4 3.1 2 4.84 2 1.75 0 3.5-.6 4.84-2 2.67-2.6 2.67-7 0-9.6-1.34-1.33-3.1-2-4.84-2"/>
  <path fill="#fbc63d" d="M10.26 211.78c-6.28-6.8-6.93-16.93-1.92-24.4v-.02c.02 0 .03-.02.03-.03 0 0 0-.02.02-.02.7-1 1.4-1.9 2.3-2.8l.2-.2c3.8-3.7 8.74-5.5 13.7-5.5.5 0 1 0 1.5.07v-.02c4.3.35 8.5 2.08 11.9 5.2l-3.37 3.37c-2.86-2.57-6.46-3.85-10.07-3.85-3.84 0-7.7 1.48-10.63 4.4-5.65 5.7-5.83 14.8-.5 20.7L10.1 212"/>
  <path fill="#fddd88" d="M13.6 208.44c-5.32-5.9-5.14-15 .55-20.7 2.93-2.92 6.78-4.4 10.63-4.4 3.6 0 7.2 1.3 10.06 3.87L13.6 208.5"/>
  <path fill="#fbc63d" d="M52.06 139.9c-1.75 0-3.5-.66-4.84-2-2.67-2.67-2.67-7 0-9.67 1.34-1.34 3.1-2 4.84-2 1.75 0 3.5.66 4.84 2 2.67 2.67 2.67 7 0 9.68-1.34 1.4-3.1 2-4.84 2m0-12c-1.33 0-2.66.5-3.68 1.5-2.03 2.1-2.03 5.3 0 7.4 1.02 1 2.35 1.5 3.68 1.5s2.66-.5 3.68-1.5c2.03-2 2.03-5.3 0-7.3-1.02-1-2.35-1.5-3.68-1.5"/>
  <path fill="#fddd88" d="M52.06 138.27c-1.33 0-2.66-.5-3.68-1.52-2.03-2.04-2.03-5.33 0-7.36 1.02-1.1 2.35-1.6 3.68-1.6s2.66.5 3.68 1.5c2.03 2 2.03 5.3 0 7.3-1.02 1-2.35 1.5-3.68 1.5"/>
  <path fill="#8ed9d4" d="M83.73 138.3c-.85-1.34-.7-3.15.5-4.33l105.8-105.82c.7-.7 1.6-1.03 2.5-1.03.63 0 1.3.18 1.85.53L83.72 138.32"/>
</svg>
